<svg xmlns="http://www.w3.org/2000/svg" version="1.1" width="1024" height="768">
<rect x="0" y="0" width="1024" height="768" fill="#84716c" />
<g transform="scale(4.000000) translate(0.5 0.5)">
<polygon fill="#fffffe" fill-opacity="0.501961" points="-16,9 262,-16 64,130" />
<polygon fill="#000000" fill-opacity="0.501961" points="13,100 271,174 -16,207" />
<polygon fill="#1d0009" fill-opacity="0.501961" points="-16,117 250,207 271,101" />
<polygon fill="#ffffea" fill-opacity="0.501961" points="195,104 271,99 92,19" />
<polygon fill="#ffffea" fill-opacity="0.501961" points="158,97 2,117 11,58" />
<polygon fill="#060000" fill-opacity="0.501961" points="19,49 73,76 89,39" />
<polygon fill="#ffffff" fill-opacity="0.501961" points="35,3 201,51 188,-16" />
<polygon fill="#ffffff" fill-opacity="0.501961" points="252,199 231,207 187,148" />
<polygon fill="#100004" fill-opacity="0.501961" points="2,114 -16,191 232,190" />
<polygon fill="#2c170d" fill-opacity="0.501961" points="232,73 170,63 271,10" />
<polygon fill="#ffffff" fill-opacity="0.501961" points="244,66 254,102 200,100" />
<polygon fill="#fac58c" fill-opacity="0.501961" points="95,207 83,181 106,143" />
<polygon fill="#3e1b03" fill-opacity="0.501961" points="35,68 24,112 67,41" />
<polygon fill="#b78475" fill-opacity="0.501961" points="171,157 99,68 185,28" />
<polygon fill="#ffffff" fill-opacity="0.501961" points="103,111 159,74 22,107" />
<polygon fill="#1d0410" fill-opacity="0.501961" points="101,87 126,76 98,62" />
<polygon fill="#fffdff" fill-opacity="0.501961" points="65,-16 191,-16 135,79" />
<polygon fill="#241316" fill-opacity="0.501961" points="209,165 149,91 254,121" />
<polygon fill="#814a27" fill-opacity="0.501961" points="11,33 54,-15 -16,-5" />
<polygon fill="#16000c" fill-opacity="0.501961" points="135,103 -16,133 59,207" />
<polygon fill="#ffffff" fill-opacity="0.501961" points="208,102 199,73 271,100" />
<polygon fill="#c59370" fill-opacity="0.501961" points="160,114 200,163 149,141" />
<polygon fill="#60320c" fill-opacity="0.501961" points="70,27 41,16 48,33" />
<polygon fill="#ffffe8" fill-opacity="0.501961" points="57,112 23,101 -16,114" />
<polygon fill="#281431" fill-opacity="0.501961" points="121,101 94,199 158,117" />
<polygon fill="#fffff8" fill-opacity="0.501961" points="26,48 81,38 76,23" />
<polygon fill="#674332" fill-opacity="0.501961" points="-2,43 75,76 92,50" />
<polygon fill="#7e5c20" fill-opacity="0.501961" points="271,125 233,55 262,28" />
<polygon fill="#fff4c1" fill-opacity="0.501961" points="-9,59 51,74 30,50" />
<polygon fill="#ffffff" fill-opacity="0.501961" points="235,199 209,168 266,207" />
<polygon fill="#b39660" fill-opacity="0.501961" points="271,24 209,25 245,-13" />
<polygon fill="#3f2e30" fill-opacity="0.501961" points="214,10 205,74 235,75" />
<polygon fill="#ffffff" fill-opacity="0.501961" points="131,93 102,111 132,62" />
<polygon fill="#7a3f6c" fill-opacity="0.501961" points="-16,76 13,108 24,81" />
<polygon fill="#c28565" fill-opacity="0.501961" points="142,111 207,97 128,48" />
<polygon fill="#ffffff" fill-opacity="0.501961" points="223,14 172,-15 237,-16" />
<polygon fill="#240e29" fill-opacity="0.501961" points="179,147 241,207 72,207" />
<polygon fill="#ffffec" fill-opacity="0.501961" points="79,63 84,89 104,60" />
<polygon fill="#ffffc9" fill-opacity="0.501961" points="38,14 49,40 3,42" />
<polygon fill="#fff4d3" fill-opacity="0.501961" points="32,115 70,67 43,71" />
<polygon fill="#281a21" fill-opacity="0.501961" points="174,97 143,124 200,99" />
<polygon fill="#faeba5" fill-opacity="0.501961" points="173,93 208,64 172,66" />
<polygon fill="#644e53" fill-opacity="0.501961" points="121,85 95,75 124,46" />
<polygon fill="#36221d" fill-opacity="0.501961" points="94,110 23,143 17,115" />
<polygon fill="#e9cec6" fill-opacity="0.501961" points="155,67 105,61 199,45" />
<polygon fill="#888392" fill-opacity="0.501961" points="186,57 184,34 133,52" />
<polygon fill="#160008" fill-opacity="0.501961" points="-14,207 36,195 26,106" />
<polygon fill="#423029" fill-opacity="0.501961" points="248,1 228,13 232,-13" />
<polygon fill="#4a3836" fill-opacity="0.501961" points="271,29 204,25 207,75" />
<polygon fill="#492e38" fill-opacity="0.501961" points="84,34 32,70 88,59" />
<polygon fill="#e9d8cc" fill-opacity="0.501961" points="181,142 197,165 218,172" />
<polygon fill="#2f1c17" fill-opacity="0.501961" points="256,153 257,207 154,103" />
<polygon fill="#fffde3" fill-opacity="0.501961" points="221,-3 188,23 187,56" />
<polygon fill="#ffffef" fill-opacity="0.501961" points="255,102 236,91 238,63" />
<polygon fill="#cec4aa" fill-opacity="0.501961" points="209,130 203,112 209,119" />
<polygon fill="#ffffd9" fill-opacity="0.501961" points="9,68 30,86 30,50" />
<polygon fill="#7b5731" fill-opacity="0.501961" points="37,30 32,49 15,52" />
<polygon fill="#4c374f" fill-opacity="0.501961" points="104,144 140,95 114,103" />
<polygon fill="#ce9ab0" fill-opacity="0.501961" points="92,60 77,24 86,-16" />
<polygon fill="#fffff7" fill-opacity="0.501961" points="140,91 84,81 95,110" />
</g>
</svg>