<svg xmlns="http://www.w3.org/2000/svg" version="1.1" width="1024" height="1024">
<rect x="0" y="0" width="1024" height="1024" fill="#6f736e" />
<g transform="scale(4.000000) translate(0.5 0.5)">
<polygon fill="#ffffff" fill-opacity="0.501961" points="-16,-16 25,71 271,7" />
<polygon fill="#141115" fill-opacity="0.501961" points="-16,47 115,252 271,77" />
<polygon fill="#ccf1ff" fill-opacity="0.501961" points="252,-16 -16,13 271,67" />
<polygon fill="#ffff8b" fill-opacity="0.501961" points="-16,246 68,271 93,147" />
<polygon fill="#201001" fill-opacity="0.501961" points="228,180 65,247 233,266" />
<polygon fill="#e1ab9c" fill-opacity="0.501961" points="80,31 133,153 144,77" />
<polygon fill="#ffff5d" fill-opacity="0.501961" points="271,268 221,224 253,170" />
<polygon fill="#e4f3ff" fill-opacity="0.501961" points="-16,54 -2,-16 249,0" />
<polygon fill="#252d31" fill-opacity="0.501961" points="247,55 271,162 46,177" />
<polygon fill="#ffffff" fill-opacity="0.501961" points="-16,240 28,271 78,236" />
<polygon fill="#c2c63b" fill-opacity="0.501961" points="84,147 37,242 -16,198" />
<polygon fill="#090808" fill-opacity="0.501961" points="155,215 59,260 175,123" />
<polygon fill="#a3bdff" fill-opacity="0.501961" points="271,61 -16,45 252,-16" />
<polygon fill="#d4c487" fill-opacity="0.501961" points="160,204 189,232 186,157" />
<polygon fill="#ffffd6" fill-opacity="0.501961" points="118,271 143,233 131,224" />
<polygon fill="#42541f" fill-opacity="0.501961" points="0,188 63,174 -16,49" />
<polygon fill="#04050a" fill-opacity="0.501961" points="166,195 98,111 40,120" />
<polygon fill="#bcbcb8" fill-opacity="0.501961" points="72,84 47,111 111,75" />
<polygon fill="#2f425f" fill-opacity="0.501961" points="119,59 -16,43 3,132" />
<polygon fill="#e2a780" fill-opacity="0.501961" points="105,84 146,136 130,153" />
<polygon fill="#a9ae4e" fill-opacity="0.501961" points="172,156 271,177 173,191" />
<polygon fill="#f5ffff" fill-opacity="0.501961" points="51,-16 68,48 -16,39" />
<polygon fill="#0f110c" fill-opacity="0.501961" points="184,197 200,245 238,196" />
<polygon fill="#77824f" fill-opacity="0.501961" points="100,179 -16,172 48,116" />
<polygon fill="#374a78" fill-opacity="0.501961" points="267,57 270,107 113,51" />
<polygon fill="#c6c656" fill-opacity="0.501961" points="-16,250 88,181 -6,188" />
<polygon fill="#f1d968" fill-opacity="0.501961" points="235,167 271,249 236,247" />
<polygon fill="#a6bdde" fill-opacity="0.501961" points="106,64 154,26 58,56" />
<polygon fill="#724c47" fill-opacity="0.501961" points="146,45 141,144 113,81" />
<polygon fill="#05070b" fill-opacity="0.501961" points="138,183 207,271 121,207" />
<polygon fill="#ffffff" fill-opacity="0.501961" points="69,254 121,271 121,253" />
<polygon fill="#c5c690" fill-opacity="0.501961" points="160,211 213,176 153,196" />
<polygon fill="#8397c4" fill-opacity="0.501961" points="159,62 266,59 149,31" />
<polygon fill="#ffffdd" fill-opacity="0.501961" points="-13,238 74,240 16,271" />
<polygon fill="#9f9a46" fill-opacity="0.501961" points="-16,240 25,199 77,230" />
<polygon fill="#565e4a" fill-opacity="0.501961" points="271,168 167,126 178,171" />
<polygon fill="#11161b" fill-opacity="0.501961" points="128,200 171,191 154,89" />
<polygon fill="#4a4238" fill-opacity="0.501961" points="109,251 114,167 69,254" />
<polygon fill="#272926" fill-opacity="0.501961" points="219,181 172,199 236,195" />
<polygon fill="#070c0a" fill-opacity="0.501961" points="105,138 113,167 82,218" />
<polygon fill="#fffccf" fill-opacity="0.501961" points="126,66 97,79 113,64" />
<polygon fill="#99bfff" fill-opacity="0.501961" points="260,62 188,37 255,-16" />
<polygon fill="#2a3447" fill-opacity="0.501961" points="139,77 260,62 259,151" />
<polygon fill="#ffffc8" fill-opacity="0.501961" points="126,115 111,90 120,124" />
<polygon fill="#e6f1ff" fill-opacity="0.501961" points="-12,-16 135,-9 -16,56" />
<polygon fill="#95888c" fill-opacity="0.501961" points="98,161 85,152 80,210" />
<polygon fill="#171315" fill-opacity="0.501961" points="233,246 220,222 235,232" />
<polygon fill="#1c1d1b" fill-opacity="0.501961" points="207,271 135,252 269,250" />
<polygon fill="#726d70" fill-opacity="0.501961" points="160,257 173,238 140,231" />
<polygon fill="#ccc863" fill-opacity="0.501961" points="31,180 65,237 80,177" />
<polygon fill="#97745b" fill-opacity="0.501961" points="105,94 117,106 110,129" />
<polygon fill="#99716e" fill-opacity="0.501961" points="195,227 177,238 174,188" />
<polygon fill="#fffff9" fill-opacity="0.501961" points="83,90 85,83 67,94" />
<polygon fill="#e5dbe5" fill-opacity="0.501961" points="71,209 71,237 84,214" />
<polygon fill="#dbcd70" fill-opacity="0.501961" points="267,180 215,224 261,222" />
<polygon fill="#181f25" fill-opacity="0.501961" points="49,116 97,81 61,135" />
<polygon fill="#abaf68" fill-opacity="0.501961" points="271,169 241,191 202,170" />
<polygon fill="#343c44" fill-opacity="0.501961" points="109,69 -16,135 16,55" />
<polygon fill="#6a5e57" fill-opacity="0.501961" points="126,160 118,195 78,221" />
<polygon fill="#3e5415" fill-opacity="0.501961" points="39,186 -16,184 8,168" />
<polygon fill="#1e1e18" fill-opacity="0.501961" points="236,201 210,228 180,205" />
<polygon fill="#feeed4" fill-opacity="0.501961" points="44,271 -16,247 75,242" />
<polygon fill="#4c5547" fill-opacity="0.501961" points="44,96 59,152 -16,134" />
<polygon fill="#8b9e36" fill-opacity="0.501961" points="-16,163 46,180 52,162" />
<polygon fill="#303a3f" fill-opacity="0.501961" points="256,161 141,127 141,51" />
<polygon fill="#becdef" fill-opacity="0.501961" points="83,55 188,-16 44,29" />
<polygon fill="#504f4b" fill-opacity="0.501961" points="200,207 172,202 219,178" />
<polygon fill="#92675d" fill-opacity="0.501961" points="137,150 142,112 119,124" />
<polygon fill="#7083a2" fill-opacity="0.501961" points="16,43 43,52 -16,54" />
<polygon fill="#878c44" fill-opacity="0.501961" points="67,221 -4,234 40,238" />
<polygon fill="#dbc9c2" fill-opacity="0.501961" points="163,207 186,211 164,198" />
<polygon fill="#5d6984" fill-opacity="0.501961" points="86,68 112,62 59,56" />
<polygon fill="#21251d" fill-opacity="0.501961" points="73,249 87,223 101,252" />
<polygon fill="#0e0d0a" fill-opacity="0.501961" points="143,271 208,222 172,269" />
<polygon fill="#181a1e" fill-opacity="0.501961" points="169,154 170,192 73,143" />
<polygon fill="#646858" fill-opacity="0.501961" points="101,159 -16,157 54,131" />
<polygon fill="#c3c160" fill-opacity="0.501961" points="65,226 82,183 -16,188" />
<polygon fill="#ffffd4" fill-opacity="0.501961" points="115,253 78,254 109,271" />
<polygon fill="#0d0d0b" fill-opacity="0.501961" points="117,207 146,232 179,233" />
<polygon fill="#bcaa87" fill-opacity="0.501961" points="119,264 134,223 144,237" />
<polygon fill="#aaa69f" fill-opacity="0.501961" points="47,116 58,101 46,109" />
<polygon fill="#dcc35f" fill-opacity="0.501961" points="231,223 270,248 240,249" />
<polygon fill="#d2d45d" fill-opacity="0.501961" points="177,197 178,181 207,182" />
<polygon fill="#49556c" fill-opacity="0.501961" points="121,64 181,69 132,46" />
<polygon fill="#deca66" fill-opacity="0.501961" points="252,249 231,249 270,191" />
<polygon fill="#1b1e10" fill-opacity="0.501961" points="230,210 235,193 225,183" />
<polygon fill="#925b48" fill-opacity="0.501961" points="137,123 131,61 104,79" />
<polygon fill="#565655" fill-opacity="0.501961" points="82,90 114,115 78,110" />
<polygon fill="#798043" fill-opacity="0.501961" points="232,183 267,179 271,192" />
<polygon fill="#c7d3f9" fill-opacity="0.501961" points="244,-16 101,2 155,37" />
<polygon fill="#272228" fill-opacity="0.501961" points="132,160 111,111 111,174" />
<polygon fill="#221f1a" fill-opacity="0.501961" points="136,208 94,250 121,253" />
<polygon fill="#67799e" fill-opacity="0.501961" points="244,61 189,47 163,64" />
<polygon fill="#ffffe5" fill-opacity="0.501961" points="159,238 153,237 157,239" />
<polygon fill="#55612c" fill-opacity="0.501961" points="169,171 170,185 182,173" />
<polygon fill="#d1d575" fill-opacity="0.501961" points="260,206 225,174 238,197" />
<polygon fill="#84797e" fill-opacity="0.501961" points="155,192 168,213 152,198" />
<polygon fill="#afbddd" fill-opacity="0.501961" points="74,29 154,47 216,23" />
<polygon fill="#606063" fill-opacity="0.501961" points="171,199 163,207 180,205" />
<polygon fill="#dfdea6" fill-opacity="0.501961" points="33,200 40,192 39,176" />
<polygon fill="#a6c6ff" fill-opacity="0.501961" points="271,44 193,28 248,-16" />
<polygon fill="#ffffff" fill-opacity="0.501961" points="49,24 39,-16 75,-2" />
<polygon fill="#e6e2e6" fill-opacity="0.501961" points="164,195 163,207 173,193" />
<polygon fill="#544c47" fill-opacity="0.501961" points="107,192 100,252 86,221" />
<polygon fill="#504d50" fill-opacity="0.501961" points="65,248 63,257 82,241" />
<polygon fill="#7d776d" fill-opacity="0.501961" points="78,233 76,238 67,223" />
<polygon fill="#a5a34a" fill-opacity="0.501961" points="29,199 -11,223 75,200" />
<polygon fill="#654b47" fill-opacity="0.501961" points="124,77 153,82 98,91" />
<polygon fill="#14161a" fill-opacity="0.501961" points="63,105 107,127 86,154" />
<polygon fill="#8598b4" fill-opacity="0.501961" points="51,49 109,55 78,61" />
<polygon fill="#fbca94" fill-opacity="0.501961" points="113,77 114,94 108,97" />
<polygon fill="#3a4962" fill-opacity="0.501961" points="24,76 105,67 -11,49" />
<polygon fill="#956e5c" fill-opacity="0.501961" points="192,231 180,241 190,213" />
<polygon fill="#89a5df" fill-opacity="0.501961" points="194,44 248,61 268,47" />
<polygon fill="#454d44" fill-opacity="0.501961" points="180,162 271,150 217,111" />
<polygon fill="#6f7344" fill-opacity="0.501961" points="189,149 205,182 185,181" />
<polygon fill="#4d4140" fill-opacity="0.501961" points="116,86 98,80 64,101" />
<polygon fill="#c6bf61" fill-opacity="0.501961" points="68,218 -14,228 35,208" />
<polygon fill="#997972" fill-opacity="0.501961" points="140,89 121,58 136,62" />
<polygon fill="#2c3137" fill-opacity="0.501961" points="139,101 145,139 271,110" />
<polygon fill="#d5e4ff" fill-opacity="0.501961" points="46,49 -14,36 86,9" />
<polygon fill="#9c9635" fill-opacity="0.501961" points="254,248 271,240 244,241" />
<polygon fill="#1a1815" fill-opacity="0.501961" points="100,227 156,221 146,160" />
<polygon fill="#977565" fill-opacity="0.501961" points="131,100 135,152 143,124" />
<polygon fill="#87817a" fill-opacity="0.501961" points="74,208 83,207 89,187" />
<polygon fill="#8a9bbc" fill-opacity="0.501961" points="128,41 204,47 178,59" />
<polygon fill="#ffeebd" fill-opacity="0.501961" points="114,63 120,61 112,69" />
<polygon fill="#647693" fill-opacity="0.501961" points="50,48 78,57 31,55" />
<polygon fill="#394359" fill-opacity="0.501961" points="170,66 150,86 130,54" />
<polygon fill="#353b40" fill-opacity="0.501961" points="-5,124 -16,74 83,82" />
<polygon fill="#4c4441" fill-opacity="0.501961" points="110,205 136,173 123,169" />
<polygon fill="#e6e3d4" fill-opacity="0.501961" points="85,84 80,92 66,93" />
<polygon fill="#f8eaca" fill-opacity="0.501961" points="5,240 68,236 49,271" />
<polygon fill="#10181e" fill-opacity="0.501961" points="165,191 174,150 151,123" />
<polygon fill="#d8d3c1" fill-opacity="0.501961" points="79,230 71,211 81,208" />
<polygon fill="#181a1c" fill-opacity="0.501961" points="105,125 116,169 90,194" />
<polygon fill="#a9b068" fill-opacity="0.501961" points="271,182 196,180 237,169" />
<polygon fill="#ffffcf" fill-opacity="0.501961" points="117,118 124,121 119,106" />
<polygon fill="#495343" fill-opacity="0.501961" points="-5,136 70,141 25,99" />
<polygon fill="#4e4437" fill-opacity="0.501961" points="185,244 234,241 229,226" />
<polygon fill="#5e4647" fill-opacity="0.501961" points="155,204 177,216 168,225" />
<polygon fill="#edbd99" fill-opacity="0.501961" points="191,214 184,208 169,208" />
<polygon fill="#bcc0c6" fill-opacity="0.501961" points="167,197 174,195 179,201" />
<polygon fill="#636551" fill-opacity="0.501961" points="174,144 172,168 260,171" />
<polygon fill="#8b6563" fill-opacity="0.501961" points="141,144 116,118 131,153" />
<polygon fill="#d5cfc5" fill-opacity="0.501961" points="91,77 108,79 101,75" />
<polygon fill="#3e4654" fill-opacity="0.501961" points="102,74 46,56 76,85" />
<polygon fill="#826d60" fill-opacity="0.501961" points="112,121 117,108 101,111" />
<polygon fill="#b7c8e3" fill-opacity="0.501961" points="115,56 83,47 125,46" />
<polygon fill="#5f6050" fill-opacity="0.501961" points="141,228 149,234 137,249" />
</g>
</svg>