<svg xmlns="http://www.w3.org/2000/svg" version="1.1" width="1024" height="1024">
<rect x="0" y="0" width="1024" height="1024" fill="#6f736e" />
<g transform="scale(4.000000) translate(0.5 0.5)">
<polygon fill="#ffffff" fill-opacity="0.501961" points="-16,-16 32,69 271,7" />
<polygon fill="#181416" fill-opacity="0.501961" points="186,271 271,75 -16,50" />
<polygon fill="#cbefff" fill-opacity="0.501961" points="-16,18 271,66 251,-16" />
<polygon fill="#ffff81" fill-opacity="0.501961" points="-16,248 72,271 81,147" />
<polygon fill="#261d12" fill-opacity="0.501961" points="105,118 269,269 76,249" />
<polygon fill="#ce9e94" fill-opacity="0.501961" points="139,162 84,53 138,46" />
<polygon fill="#e9f8ff" fill-opacity="0.501961" points="-16,53 240,0 -12,-16" />
<polygon fill="#e3e785" fill-opacity="0.501961" points="182,165 243,170 155,212" />
<polygon fill="#ffff5f" fill-opacity="0.501961" points="271,138 226,219 250,271" />
<polygon fill="#313d21" fill-opacity="0.501961" points="-16,188 159,161 -3,69" />
<polygon fill="#ffffff" fill-opacity="0.501961" points="77,236 -16,241 36,271" />
<polygon fill="#bcbe45" fill-opacity="0.501961" points="26,139 89,220 -16,242" />
<polygon fill="#cbb0a5" fill-opacity="0.501961" points="147,196 195,236 182,192" />
<polygon fill="#a3bdff" fill-opacity="0.501961" points="251,-16 -16,45 271,60" />
<polygon fill="#131e2d" fill-opacity="0.501961" points="96,261 266,57 165,77" />
<polygon fill="#0a0800" fill-opacity="0.501961" points="239,201 221,179 167,271" />
<polygon fill="#fffecb" fill-opacity="0.501961" points="117,271 142,234 132,223" />
<polygon fill="#3c4f6a" fill-opacity="0.501961" points="116,61 37,127 -16,42" />
<polygon fill="#303e52" fill-opacity="0.501961" points="271,74 117,50 266,183" />
<polygon fill="#f5ffff" fill-opacity="0.501961" points="52,-16 68,49 -16,38" />
<polygon fill="#16110d" fill-opacity="0.501961" points="61,258 159,218 144,161" />
<polygon fill="#f7edd9" fill-opacity="0.501961" points="83,92 97,75 57,99" />
<polygon fill="#070718" fill-opacity="0.501961" points="75,97 173,193 48,125" />
<polygon fill="#ffffc3" fill-opacity="0.501961" points="120,123 109,89 128,116" />
<polygon fill="#ecd869" fill-opacity="0.501961" points="236,165 234,253 271,227" />
<polygon fill="#7f8752" fill-opacity="0.501961" points="175,135 271,190 170,178" />
<polygon fill="#ffffed" fill-opacity="0.501961" points="8,252 58,271 124,254" />
<polygon fill="#5f75a6" fill-opacity="0.501961" points="271,57 188,73 116,42" />
<polygon fill="#d1cc71" fill-opacity="0.501961" points="82,231 -16,186 81,186" />
<polygon fill="#687447" fill-opacity="0.501961" points="101,165 34,111 -16,192" />
<polygon fill="#2e3744" fill-opacity="0.501961" points="-16,142 107,68 4,55" />
<polygon fill="#2c2a23" fill-opacity="0.501961" points="216,179 178,199 223,259" />
<polygon fill="#fff2c4" fill-opacity="0.501961" points="115,61 127,66 98,80" />
<polygon fill="#242224" fill-opacity="0.501961" points="151,271 267,253 172,240" />
<polygon fill="#fffedc" fill-opacity="0.501961" points="-16,237 74,241 3,271" />
<polygon fill="#9bb6db" fill-opacity="0.501961" points="145,30 111,62 71,61" />
<polygon fill="#aaa648" fill-opacity="0.501961" points="77,231 -16,240 -3,184" />
<polygon fill="#9cc1ff" fill-opacity="0.501961" points="259,-16 271,67 184,33" />
<polygon fill="#8d5748" fill-opacity="0.501961" points="141,64 108,72 141,149" />
<polygon fill="#e5f1ff" fill-opacity="0.501961" points="-16,-2 154,-16 -1,49" />
<polygon fill="#6d6361" fill-opacity="0.501961" points="133,178 78,228 114,171" />
<polygon fill="#030911" fill-opacity="0.501961" points="119,159 98,155 86,209" />
<polygon fill="#243b0c" fill-opacity="0.501961" points="-16,186 14,172 33,184" />
<polygon fill="#111212" fill-opacity="0.501961" points="112,254 148,118 175,155" />
<polygon fill="#88914b" fill-opacity="0.501961" points="98,155 89,187 -16,162" />
<polygon fill="#807874" fill-opacity="0.501961" points="163,253 173,241 127,224" />
<polygon fill="#a8806f" fill-opacity="0.501961" points="180,241 170,192 196,226" />
<polygon fill="#c2c56d" fill-opacity="0.501961" points="211,173 252,170 242,193" />
<polygon fill="#dee388" fill-opacity="0.501961" points="209,181 178,181 157,206" />
<polygon fill="#a9a091" fill-opacity="0.501961" points="58,108 36,117 71,90" />
<polygon fill="#d3ccea" fill-opacity="0.501961" points="73,236 71,204 83,214" />
<polygon fill="#3c453f" fill-opacity="0.501961" points="249,172 165,148 271,73" />
<polygon fill="#ab766e" fill-opacity="0.501961" points="130,154 119,125 144,132" />
<polygon fill="#3a352e" fill-opacity="0.501961" points="61,254 106,211 121,250" />
<polygon fill="#444e64" fill-opacity="0.501961" points="132,47 180,70 111,63" />
<polygon fill="#bfc25a" fill-opacity="0.501961" points="19,230 93,177 -16,190" />
<polygon fill="#dacc6b" fill-opacity="0.501961" points="271,223 217,224 248,191" />
<polygon fill="#191612" fill-opacity="0.501961" points="236,240 232,229 217,223" />
<polygon fill="#080c10" fill-opacity="0.501961" points="134,173 146,232 174,234" />
<polygon fill="#c3cff6" fill-opacity="0.501961" points="162,-16 38,30 230,27" />
<polygon fill="#17170f" fill-opacity="0.501961" points="233,205 229,182 187,241" />
<polygon fill="#889044" fill-opacity="0.501961" points="-16,233 50,220 48,238" />
<polygon fill="#374360" fill-opacity="0.501961" points="271,93 244,60 155,71" />
<polygon fill="#a47557" fill-opacity="0.501961" points="107,123 117,110 105,78" />
<polygon fill="#6a705a" fill-opacity="0.501961" points="-3,137 -2,164 94,154" />
<polygon fill="#8b9bbe" fill-opacity="0.501961" points="212,42 126,39 178,65" />
<polygon fill="#494948" fill-opacity="0.501961" points="74,113 110,109 102,81" />
<polygon fill="#f3d3ac" fill-opacity="0.501961" points="187,213 161,206 180,206" />
<polygon fill="#6b6d52" fill-opacity="0.501961" points="167,171 223,151 271,170" />
<polygon fill="#fff2b3" fill-opacity="0.501961" points="129,119 111,90 118,115" />
<polygon fill="#495244" fill-opacity="0.501961" points="35,97 65,143 -16,140" />
<polygon fill="#42516d" fill-opacity="0.501961" points="-14,59 105,74 52,48" />
<polygon fill="#554f4b" fill-opacity="0.501961" points="125,162 81,215 96,245" />
<polygon fill="#b4c3de" fill-opacity="0.501961" points="55,26 195,29 73,59" />
<polygon fill="#bfa988" fill-opacity="0.501961" points="131,224 121,259 146,236" />
<polygon fill="#251f17" fill-opacity="0.501961" points="133,217 122,250 80,252" />
<polygon fill="#655552" fill-opacity="0.501961" points="165,222 180,222 151,195" />
<polygon fill="#ffe4c3" fill-opacity="0.501961" points="116,71 121,60 97,79" />
<polygon fill="#2d333a" fill-opacity="0.501961" points="271,109 145,80 143,142" />
<polygon fill="#9b8d91" fill-opacity="0.501961" points="74,212 90,183 89,150" />
<polygon fill="#ffffdb" fill-opacity="0.501961" points="62,269 133,256 92,252" />
<polygon fill="#c9d274" fill-opacity="0.501961" points="33,178 40,193 80,180" />
<polygon fill="#e2c45c" fill-opacity="0.501961" points="227,249 265,232 270,248" />
<polygon fill="#1b1b21" fill-opacity="0.501961" points="162,193 98,110 63,135" />
<polygon fill="#544437" fill-opacity="0.501961" points="229,238 192,249 175,235" />
<polygon fill="#5b5e5a" fill-opacity="0.501961" points="200,197 179,208 173,201" />
<polygon fill="#13191b" fill-opacity="0.501961" points="169,152 114,189 169,192" />
<polygon fill="#7e534f" fill-opacity="0.501961" points="123,107 150,83 112,69" />
<polygon fill="#ffefcc" fill-opacity="0.501961" points="70,239 6,271 -4,238" />
<polygon fill="#a09d48" fill-opacity="0.501961" points="29,200 -9,225 64,202" />
<polygon fill="#e2edff" fill-opacity="0.501961" points="132,-16 35,48 -16,4" />
<polygon fill="#302d20" fill-opacity="0.501961" points="122,268 150,228 143,271" />
<polygon fill="#da996e" fill-opacity="0.501961" points="106,83 109,105 113,78" />
<polygon fill="#403b3c" fill-opacity="0.501961" points="60,107 92,83 121,83" />
<polygon fill="#7d8eb0" fill-opacity="0.501961" points="-16,53 34,49 12,43" />
<polygon fill="#f1efdd" fill-opacity="0.501961" points="81,91 69,90 85,85" />
<polygon fill="#a8af67" fill-opacity="0.501961" points="197,178 242,184 271,168" />
<polygon fill="#6c7b97" fill-opacity="0.501961" points="81,65 53,49 116,60" />
<polygon fill="#ffffd6" fill-opacity="0.501961" points="121,105 117,116 121,121" />
<polygon fill="#736459" fill-opacity="0.501961" points="111,99 78,111 119,112" />
<polygon fill="#3e3e37" fill-opacity="0.501961" points="175,197 221,181 236,193" />
<polygon fill="#c8c7d6" fill-opacity="0.501961" points="173,195 161,194 163,208" />
<polygon fill="#9fc2ff" fill-opacity="0.501961" points="205,35 271,47 250,-16" />
<polygon fill="#778b2c" fill-opacity="0.501961" points="39,179 -7,146 -3,169" />
<polygon fill="#88867f" fill-opacity="0.501961" points="73,87 68,101 44,111" />
<polygon fill="#363d41" fill-opacity="0.501961" points="14,122 -16,80 86,81" />
<polygon fill="#a2755a" fill-opacity="0.501961" points="144,135 119,122 138,108" />
<polygon fill="#87a5e1" fill-opacity="0.501961" points="250,40 271,62 189,48" />
<polygon fill="#675e5b" fill-opacity="0.501961" points="135,174 123,169 103,182" />
<polygon fill="#c5bc5d" fill-opacity="0.501961" points="83,182 76,207 23,229" />
<polygon fill="#918c87" fill-opacity="0.501961" points="71,231 88,216 78,236" />
<polygon fill="#949592" fill-opacity="0.501961" points="89,80 103,74 89,87" />
<polygon fill="#444f44" fill-opacity="0.501961" points="271,157 159,124 189,162" />
<polygon fill="#1f1e18" fill-opacity="0.501961" points="211,223 224,205 178,205" />
<polygon fill="#aba393" fill-opacity="0.501961" points="47,121 45,114 51,107" />
<polygon fill="#181614" fill-opacity="0.501961" points="151,183 108,211 152,233" />
<polygon fill="#191912" fill-opacity="0.501961" points="193,218 193,240 223,217" />
<polygon fill="#ffffff" fill-opacity="0.501961" points="40,-7 49,24 69,3" />
<polygon fill="#8b8f85" fill-opacity="0.501961" points="165,199 153,192 157,207" />
<polygon fill="#fffbdd" fill-opacity="0.501961" points="159,238 159,240 153,237" />
<polygon fill="#586b95" fill-opacity="0.501961" points="202,52 200,65 239,60" />
<polygon fill="#7d7b76" fill-opacity="0.501961" points="112,118 110,128 104,108" />
<polygon fill="#1d261e" fill-opacity="0.501961" points="103,184 86,197 85,215" />
<polygon fill="#110f0c" fill-opacity="0.501961" points="180,251 169,271 172,218" />
<polygon fill="#171820" fill-opacity="0.501961" points="105,174 172,157 165,130" />
<polygon fill="#2c3032" fill-opacity="0.501961" points="153,161 163,102 138,101" />
<polygon fill="#34383c" fill-opacity="0.501961" points="98,76 84,107 108,109" />
<polygon fill="#f0eebc" fill-opacity="0.501961" points="184,185 183,173 186,178" />
<polygon fill="#27242b" fill-opacity="0.501961" points="111,175 128,152 113,115" />
<polygon fill="#444139" fill-opacity="0.501961" points="108,252 92,253 100,209" />
<polygon fill="#211b14" fill-opacity="0.501961" points="134,201 122,254 105,218" />
<polygon fill="#cbcd6f" fill-opacity="0.501961" points="225,179 270,202 247,206" />
<polygon fill="#434e66" fill-opacity="0.501961" points="157,232 173,237 171,249" />
<polygon fill="#72763e" fill-opacity="0.501961" points="206,183 185,180 188,159" />
<polygon fill="#464c54" fill-opacity="0.501961" points="271,251 223,249 253,262" />
<polygon fill="#7a8084" fill-opacity="0.501961" points="164,208 175,193 184,202" />
<polygon fill="#bdd0ea" fill-opacity="0.501961" points="71,52 121,51 43,27" />
<polygon fill="#d5c569" fill-opacity="0.501961" points="222,221 249,240 244,192" />
<polygon fill="#191d14" fill-opacity="0.501961" points="87,242 80,235 89,219" />
<polygon fill="#94716b" fill-opacity="0.501961" points="142,138 132,153 122,132" />
<polygon fill="#f3b784" fill-opacity="0.501961" points="115,99 123,107 110,108" />
<polygon fill="#3c4451" fill-opacity="0.501961" points="45,56 68,91 109,69" />
<polygon fill="#61576a" fill-opacity="0.501961" points="90,154 98,161 87,191" />
<polygon fill="#ffffdd" fill-opacity="0.501961" points="68,271 75,254 120,254" />
<polygon fill="#6d7345" fill-opacity="0.501961" points="170,187 185,167 173,152" />
<polygon fill="#848949" fill-opacity="0.501961" points="233,185 264,189 240,178" />
<polygon fill="#f3f1e3" fill-opacity="0.501961" points="86,83 73,91 78,93" />
<polygon fill="#ffefba" fill-opacity="0.501961" points="114,97 108,99 112,89" />
<polygon fill="#faf0d2" fill-opacity="0.501961" points="-11,256 39,271 74,234" />
<polygon fill="#b7a98a" fill-opacity="0.501961" points="128,229 144,231 134,225" />
<polygon fill="#a07874" fill-opacity="0.501961" points="129,88 140,96 140,81" />
<polygon fill="#47402d" fill-opacity="0.501961" points="224,271 215,221 235,233" />
<polygon fill="#c2d4fe" fill-opacity="0.501961" points="99,4 225,17 223,-16" />
<polygon fill="#9f94a2" fill-opacity="0.501961" points="66,246 75,240 62,256" />
<polygon fill="#a7aa66" fill-opacity="0.501961" points="207,169 241,172 197,186" />
<polygon fill="#485343" fill-opacity="0.501961" points="39,94 49,130 -16,138" />
<polygon fill="#e3ba97" fill-opacity="0.501961" points="186,211 186,214 192,216" />
<polygon fill="#91a4be" fill-opacity="0.501961" points="83,60 53,51 97,52" />
<polygon fill="#fafef1" fill-opacity="0.501961" points="93,80 109,72 102,80" />
<polygon fill="#d2e1fb" fill-opacity="0.501961" points="-3,38 91,7 48,49" />
<polygon fill="#846152" fill-opacity="0.501961" points="176,212 177,236 193,230" />
<polygon fill="#e5e3d7" fill-opacity="0.501961" points="73,226 82,208 72,211" />
<polygon fill="#636952" fill-opacity="0.501961" points="75,142 14,163 88,159" />
<polygon fill="#dad9a6" fill-opacity="0.501961" points="39,176 42,189 37,200" />
<polygon fill="#303746" fill-opacity="0.501961" points="177,69 264,88 271,166" />
<polygon fill="#697530" fill-opacity="0.501961" points="54,165 52,176 82,177" />
<polygon fill="#4f5458" fill-opacity="0.501961" points="89,96 76,96 99,76" />
<polygon fill="#a25f48" fill-opacity="0.501961" points="101,85 109,90 113,69" />
<polygon fill="#5c6e84" fill-opacity="0.501961" points="114,57 154,53 133,46" />
<polygon fill="#efc988" fill-opacity="0.501961" points="65,237 58,236 67,222" />
<polygon fill="#877a51" fill-opacity="0.501961" points="47,223 64,223 57,230" />
<polygon fill="#e1cc6c" fill-opacity="0.501961" points="270,224 246,210 232,249" />
<polygon fill="#cdd15c" fill-opacity="0.501961" points="171,190 200,183 181,196" />
<polygon fill="#bcbe56" fill-opacity="0.501961" points="-16,213 12,212 19,180" />
<polygon fill="#664236" fill-opacity="0.501961" points="112,88 119,69 125,89" />
<polygon fill="#26261c" fill-opacity="0.501961" points="236,194 219,221 225,182" />
<polygon fill="#a09b32" fill-opacity="0.501961" points="248,245 260,246 247,237" />
<polygon fill="#464239" fill-opacity="0.501961" points="202,192 178,197 204,208" />
<polygon fill="#675a4a" fill-opacity="0.501961" points="225,240 208,238 222,228" />
<polygon fill="#4f622d" fill-opacity="0.501961" points="11,168 36,184 12,186" />
<polygon fill="#7f7b61" fill-opacity="0.501961" points="143,230 129,253 143,243" />
<polygon fill="#445472" fill-opacity="0.501961" points="-16,50 29,51 -16,66" />
<polygon fill="#2e3028" fill-opacity="0.501961" points="92,241 89,226 64,255" />
<polygon fill="#4a433e" fill-opacity="0.501961" points="131,169 116,202 96,211" />
<polygon fill="#1f1e19" fill-opacity="0.501961" points="226,251 179,266 146,254" />
<polygon fill="#353e4d" fill-opacity="0.501961" points="166,66 157,107 133,57" />
<polygon fill="#1f232c" fill-opacity="0.501961" points="49,122 70,103 55,108" />
<polygon fill="#514d48" fill-opacity="0.501961" points="156,149 148,140 150,126" />
<polygon fill="#475044" fill-opacity="0.501961" points="263,121 216,139 258,168" />
<polygon fill="#3b4c11" fill-opacity="0.501961" points="83,172 82,162 78,173" />
<polygon fill="#6b715a" fill-opacity="0.501961" points="40,139 24,161 -16,151" />
<polygon fill="#c2bb5f" fill-opacity="0.501961" points="68,220 -14,228 81,190" />
<polygon fill="#f2e7cd" fill-opacity="0.501961" points="8,240 51,237 65,252" />
<polygon fill="#3c3634" fill-opacity="0.501961" points="137,82 130,79 129,85" />
<polygon fill="#31393c" fill-opacity="0.501961" points="188,146 140,116 164,69" />
<polygon fill="#a8b7d6" fill-opacity="0.501961" points="115,57 140,37 95,30" />
<polygon fill="#ffd1a4" fill-opacity="0.501961" points="113,71 120,60 111,66" />
<polygon fill="#1a1512" fill-opacity="0.501961" points="185,271 175,259 181,230" />
<polygon fill="#171a1c" fill-opacity="0.501961" points="127,149 135,204 174,182" />
<polygon fill="#f9e4b1" fill-opacity="0.501961" points="112,80 110,85 114,84" />
<polygon fill="#8698b2" fill-opacity="0.501961" points="39,50 65,55 54,47" />
<polygon fill="#191a1b" fill-opacity="0.501961" points="55,127 103,116 100,158" />
<polygon fill="#adbee3" fill-opacity="0.501961" points="186,16 212,30 129,41" />
<polygon fill="#ffe8ae" fill-opacity="0.501961" points="126,113 117,106 122,124" />
<polygon fill="#535e75" fill-opacity="0.501961" points="72,61 116,60 99,69" />
<polygon fill="#3c4865" fill-opacity="0.501961" points="268,60 199,70 271,81" />
<polygon fill="#fffffc" fill-opacity="0.501961" points="72,245 71,236 67,240" />
<polygon fill="#87706d" fill-opacity="0.501961" points="141,91 126,59 138,65" />
<polygon fill="#131311" fill-opacity="0.501961" points="166,220 124,217 157,235" />
<polygon fill="#cee2ff" fill-opacity="0.501961" points="23,38 11,46 -16,11" />
<polygon fill="#654540" fill-opacity="0.501961" points="172,213 166,216 171,228" />
<polygon fill="#e5e1c4" fill-opacity="0.501961" points="229,178 232,185 231,177" />
<polygon fill="#7f786b" fill-opacity="0.501961" points="74,228 78,235 75,242" />
<polygon fill="#907264" fill-opacity="0.501961" points="192,218 183,211 181,242" />
<polygon fill="#ffe1b4" fill-opacity="0.501961" points="165,210 181,209 176,206" />
<polygon fill="#95583f" fill-opacity="0.501961" points="129,117 123,118 130,128" />
<polygon fill="#685c57" fill-opacity="0.501961" points="112,176 102,201 125,178" />
<polygon fill="#11191f" fill-opacity="0.501961" points="172,146 164,193 153,125" />
<polygon fill="#f0e8dc" fill-opacity="0.501961" points="162,205 164,198 171,194" />
<polygon fill="#383323" fill-opacity="0.501961" points="235,242 224,254 224,225" />
<polygon fill="#c4c1bf" fill-opacity="0.501961" points="177,199 162,201 172,193" />
<polygon fill="#88b6ff" fill-opacity="0.501961" points="237,50 246,28 271,44" />
<polygon fill="#2d2b24" fill-opacity="0.501961" points="119,238 121,252 74,251" />
<polygon fill="#78766d" fill-opacity="0.501961" points="162,193 162,212 152,193" />
<polygon fill="#cecc6c" fill-opacity="0.501961" points="236,188 271,192 239,225" />
<polygon fill="#c1b598" fill-opacity="0.501961" points="135,247 120,260 136,227" />
<polygon fill="#364055" fill-opacity="0.501961" points="53,56 -16,113 -12,62" />
<polygon fill="#8c6b61" fill-opacity="0.501961" points="189,236 181,211 170,209" />
<polygon fill="#bec461" fill-opacity="0.501961" points="41,204 84,176 40,180" />
<polygon fill="#cce1ff" fill-opacity="0.501961" points="16,13 38,-16 -16,1" />
<polygon fill="#768e37" fill-opacity="0.501961" points="44,160 37,180 0,162" />
<polygon fill="#27262b" fill-opacity="0.501961" points="108,135 129,170 117,121" />
<polygon fill="#7b8ca4" fill-opacity="0.501961" points="123,49 157,51 133,42" />
<polygon fill="#3f3e3f" fill-opacity="0.501961" points="107,90 102,109 85,85" />
<polygon fill="#9d9684" fill-opacity="0.501961" points="80,185 88,174 82,207" />
<polygon fill="#906449" fill-opacity="0.501961" points="116,104 109,111 116,113" />
<polygon fill="#707432" fill-opacity="0.501961" points="4,221 -16,214 6,214" />
<polygon fill="#d9d3c0" fill-opacity="0.501961" points="71,229 79,229 74,215" />
<polygon fill="#7d7e7c" fill-opacity="0.501961" points="82,108 75,111 90,111" />
<polygon fill="#dbc8a4" fill-opacity="0.501961" points="16,242 -2,241 8,245" />
<polygon fill="#879145" fill-opacity="0.501961" points="39,227 1,229 24,238" />
<polygon fill="#62781f" fill-opacity="0.501961" points="-10,190 13,167 -16,176" />
<polygon fill="#605852" fill-opacity="0.501961" points="95,206 95,242 87,214" />
<polygon fill="#87867f" fill-opacity="0.501961" points="77,220 89,213 80,230" />
<polygon fill="#161510" fill-opacity="0.501961" points="184,253 187,242 169,235" />
<polygon fill="#292d26" fill-opacity="0.501961" points="92,203 91,188 82,208" />
<polygon fill="#65564f" fill-opacity="0.501961" points="174,244 152,241 144,251" />
<polygon fill="#90675d" fill-opacity="0.501961" points="118,121 137,149 143,137" />
<polygon fill="#c5d3f4" fill-opacity="0.501961" points="217,-16 168,24 67,22" />
<polygon fill="#18171b" fill-opacity="0.501961" points="157,173 146,122 126,216" />
</g>
</svg>