<svg xmlns="http://www.w3.org/2000/svg" version="1.1" width="1024" height="1024">
<polygon fill="#ffffff" points="57,73 -16,-1 271,0" />
<polygon fill="#181417" points="185,271 -16,50 271,73" />
<polygon fill="#c6ebff" points="-16,26 250,-16 271,64" />
<polygon fill="#ffff82" points="73,271 80,148 -16,249" />
<polygon fill="#0e0905" points="157,254 171,101 68,251" />
<polygon fill="#fbffff" points="4,52 158,0 -16,-2" />
<polygon fill="#e1a48f" points="86,43 141,75 135,161" />
<polygon fill="#e8ec82" points="189,163 155,208 242,171" />
<polygon fill="#ffff5c" points="223,220 252,254 269,148" />
<polygon fill="#120600" points="231,271 229,184 149,271" />
<polygon fill="#2f3b1f" points="162,165 -16,58 -5,184" />
<polygon fill="#ffffff" points="23,271 76,240 -16,238" />
<polygon fill="#abb341" points="101,160 -16,143 4,243" />
<polygon fill="#a8c1ff" points="-16,45 265,58 253,-16" />
<polygon fill="#fff7c4" points="118,267 131,225 146,234" />
<polygon fill="#171418" points="112,119 176,240 83,208" />
<polygon fill="#cdae9d" points="151,194 182,193 196,241" />
<polygon fill="#233349" points="260,59 136,72 271,186" />
<polygon fill="#3f526f" points="-16,43 119,59 41,124" />
<polygon fill="#e5f7ff" points="-12,53 177,-16 -9,-8" />
<polygon fill="#cbc555" points="90,179 43,240 -16,189" />
<polygon fill="#e0dac8" points="108,75 79,82 59,103" />
<polygon fill="#5e74a7" points="180,72 105,39 270,57" />
<polygon fill="#060514" points="43,118 120,172 99,109" />
<polygon fill="#eed764" points="271,250 236,248 234,161" />
<polygon fill="#ffffcd" points="110,89 126,113 121,125" />
<polygon fill="#7c6f67" points="133,172 87,227 114,168" />
<polygon fill="#fffee2" points="38,271 79,234 -16,244" />
<polygon fill="#ffffff" points="72,254 125,253 74,271" />
<polygon fill="#1d1e12" points="211,178 174,271 240,196" />
<polygon fill="#6a724f" points="174,144 170,176 271,167" />
<polygon fill="#f7de77" points="218,223 232,209 255,230" />
<polygon fill="#1d360f" points="-9,186 9,169 36,184" />
<polygon fill="#2b3442" points="103,72 -16,54 0,127" />
<polygon fill="#5f6659" points="101,164 -16,158 45,117" />
<polygon fill="#fcf1d9" points="79,230 67,212 81,207" />
<polygon fill="#81554e" points="140,46 112,82 143,150" />
<polygon fill="#fffed1" points="113,63 100,78 127,65" />
<polygon fill="#c1d1f2" points="113,60 2,40 182,-16" />
<polygon fill="#0e1319" points="106,251 174,166 155,101" />
<polygon fill="#848837" points="42,238 -16,232 71,218" />
<polygon fill="#99c0ff" points="270,67 188,36 255,-16" />
<polygon fill="#2c343f" points="270,115 146,145 141,52" />
<polygon fill="#7a6e67" points="132,224 160,255 170,242" />
<polygon fill="#bbbf65" points="218,172 266,170 252,212" />
<polygon fill="#ebf5ff" points="63,49 -16,35 62,-16" />
<polygon fill="#d1d589" points="178,180 157,212 198,185" />
<polygon fill="#373027" points="271,258 113,261 187,235" />
<polygon fill="#bcb09e" points="45,119 64,96 47,108" />
<polygon fill="#111618" points="105,122 84,217 119,152" />
<polygon fill="#27251d" points="67,254 88,220 94,251" />
<polygon fill="#333129" points="178,197 216,181 195,222" />
<polygon fill="#cad06c" points="86,182 -16,219 39,178" />
<polygon fill="#798ba8" points="63,58 115,64 141,45" />
<polygon fill="#866052" points="195,223 151,198 184,242" />
<polygon fill="#aa8062" points="117,107 106,89 110,129" />
<polygon fill="#18140d" points="158,157 102,221 118,253" />
<polygon fill="#90838a" points="89,151 79,201 97,168" />
<polygon fill="#8c9ec4" points="101,32 173,61 248,49" />
<polygon fill="#3f4e6b" points="123,50 148,80 241,72" />
<polygon fill="#8e954d" points="170,181 172,163 228,182" />
<polygon fill="#14181f" points="101,163 171,193 170,142" />
<polygon fill="#14130f" points="174,218 126,197 176,242" />
<polygon fill="#c5d4fe" points="65,14 240,30 184,-16" />
<polygon fill="#fffff6" points="71,90 78,93 85,85" />
<polygon fill="#dbc7b0" points="184,211 158,197 168,211" />
<polygon fill="#3d473d" points="271,121 142,118 242,167" />
<polygon fill="#a0766e" points="142,149 141,119 126,149" />
<polygon fill="#fff1cd" points="-4,238 73,239 3,271" />
<polygon fill="#181c22" points="47,116 82,94 69,140" />
<polygon fill="#dbcf70" points="236,186 237,251 271,195" />
<polygon fill="#ffffcd" points="126,115 117,103 117,119" />
<polygon fill="#756b65" points="109,107 109,116 76,110" />
<polygon fill="#adbed9" points="161,38 75,59 76,22" />
<polygon fill="#b2b04c" points="-16,189 61,202 -9,233" />
<polygon fill="#4e4331" points="183,242 234,229 231,250" />
<polygon fill="#ffffea" points="92,253 69,267 120,255" />
<polygon fill="#39475e" points="-10,75 39,50 107,70" />
<polygon fill="#1a1913" points="232,205 216,220 176,205" />
<polygon fill="#9ba060" points="271,164 259,190 203,177" />
<polygon fill="#69714d" points="64,179 98,157 6,137" />
<polygon fill="#c4c061" points="-5,187 66,227 84,190" />
<polygon fill="#798cad" points="6,43 60,51 26,55" />
<polygon fill="#564d46" points="87,211 133,166 93,241" />
<polygon fill="#393a32" points="224,181 196,190 236,193" />
<polygon fill="#272d32" points="154,152 138,101 210,113" />
<polygon fill="#787a81" points="165,249 151,234 165,234" />
<polygon fill="#958e7e" points="82,210 83,228 72,245" />
<polygon fill="#95736d" points="116,57 135,62 144,93" />
<polygon fill="#585e4a" points="179,169 271,168 238,138" />
<polygon fill="#5b433f" points="115,78 155,80 114,89" />
<polygon fill="#384567" points="260,92 206,62 271,63" />
<polygon fill="#828b88" points="153,196 165,193 159,210" />
<polygon fill="#d2be66" points="219,221 232,208 247,234" />
<polygon fill="#e2edff" points="-14,46 161,-16 -16,-15" />
<polygon fill="#4a5541" points="59,138 36,94 -16,140" />
<polygon fill="#f7d56f" points="252,249 242,242 230,248" />
<polygon fill="#fffde8" points="108,71 104,81 99,78" />
<polygon fill="#ffd69d" points="110,96 112,79 116,105" />
<polygon fill="#414549" points="68,101 91,101 99,78" />
<polygon fill="#463f2f" points="119,271 146,231 159,271" />
<polygon fill="#c6b493" points="141,232 134,223 121,262" />
<polygon fill="#211d17" points="140,170 122,254 103,239" />
<polygon fill="#9cc0ff" points="249,52 207,27 271,-16" />
<polygon fill="#e5e6f3" points="170,191 161,200 173,195" />
<polygon fill="#9e6b60" points="128,149 118,121 143,132" />
<polygon fill="#2b2f2c" points="271,250 187,251 227,271" />
<polygon fill="#0a0d0d" points="165,254 168,271 199,229" />
<polygon fill="#6b7d9e" points="175,66 228,56 125,47" />
<polygon fill="#8192ad" points="83,63 102,54 48,49" />
<polygon fill="#f7f1ff" points="54,271 53,250 63,249" />
<polygon fill="#645a53" points="106,177 129,169 89,218" />
<polygon fill="#1c1e21" points="126,162 105,117 90,194" />
<polygon fill="#767a7b" points="175,193 184,200 158,214" />
<polygon fill="#cdcd62" points="175,199 204,183 179,180" />
<polygon fill="#985543" points="137,69 101,81 115,68" />
<polygon fill="#7c4739" points="138,97 119,100 108,83" />
<polygon fill="#32302d" points="92,234 59,256 88,249" />
<polygon fill="#9c7964" points="187,209 193,228 181,240" />
<polygon fill="#cfcac7" points="75,209 84,214 69,238" />
<polygon fill="#161512" points="152,194 112,209 151,234" />
<polygon fill="#ffebb4" points="178,206 185,210 169,208" />
<polygon fill="#4e5c74" points="132,43 117,59 154,58" />
<polygon fill="#455674" points="-4,64 50,55 -14,47" />
<polygon fill="#8f8c84" points="50,110 74,94 62,95" />
<polygon fill="#1e1e18" points="207,233 235,196 187,209" />
<polygon fill="#ffd0a5" points="108,68 117,70 121,60" />
<polygon fill="#17191e" points="126,160 170,193 161,128" />
<polygon fill="#fbeebb" points="114,252 69,271 66,255" />
<polygon fill="#dfdeb2" points="39,177 40,194 35,196" />
<polygon fill="#333a3d" points="91,78 44,105 17,78" />
<polygon fill="#9da047" points="-2,219 58,203 20,201" />
<polygon fill="#686e3e" points="187,181 201,178 186,162" />
<polygon fill="#302a21" points="115,253 91,251 120,228" />
<polygon fill="#ffffff" points="70,5 47,23 42,-5" />
<polygon fill="#91869a" points="66,246 75,242 62,255" />
<polygon fill="#4b4841" points="208,183 179,199 208,200" />
<polygon fill="#abb06c" points="260,176 201,182 209,167" />
<polygon fill="#7b8044" points="255,188 266,179 234,184" />
<polygon fill="#dfe29e" points="180,196 186,184 184,174" />
<polygon fill="#8aa9e4" points="271,40 187,46 249,60" />
<polygon fill="#dbe8ff" points="31,49 -3,-16 59,44" />
<polygon fill="#76706a" points="83,228 77,239 71,229" />
<polygon fill="#b2c3df" points="150,29 114,57 45,32" />
<polygon fill="#56443f" points="171,211 154,209 172,228" />
<polygon fill="#a29b86" points="72,210 85,201 88,166" />
<polygon fill="#e7ebdf" points="164,209 164,198 162,202" />
<polygon fill="#77706d" points="84,152 86,198 97,155" />
<polygon fill="#aebee3" points="209,37 138,36 200,12" />
<polygon fill="#4a4641" points="151,126 145,136 157,153" />
<polygon fill="#18181b" points="58,130 109,163 103,114" />
<polygon fill="#916c63" points="138,104 146,84 136,78" />
<polygon fill="#22251d" points="231,229 231,247 222,226" />
<polygon fill="#ffe4a5" points="121,120 114,98 127,114" />
<polygon fill="#2a2922" points="234,193 184,208 230,209" />
<polygon fill="#222026" points="113,117 136,169 105,171" />
<polygon fill="#646c4c" points="83,174 65,137 83,149" />
<polygon fill="#3b465e" points="155,233 168,233 174,248" />
<polygon fill="#a1972c" points="252,247 271,240 246,241" />
<polygon fill="#9a8650" points="64,224 42,222 57,233" />
<polygon fill="#676763" points="177,196 172,206 186,204" />
<polygon fill="#253317" points="9,185 20,175 -12,185" />
<polygon fill="#728637" points="50,158 -4,171 80,177" />
<polygon fill="#544a3f" points="181,248 224,229 226,245" />
<polygon fill="#f8ecca" points="73,236 14,271 -15,240" />
<polygon fill="#cbbda0" points="153,236 159,240 160,236" />
<polygon fill="#3e4844" points="264,117 171,147 271,162" />
<polygon fill="#49515d" points="97,68 120,57 94,80" />
<polygon fill="#8f6c54" points="102,99 118,111 113,99" />
<polygon fill="#ffffde" points="116,116 119,120 120,111" />
<polygon fill="#d3b36a" points="49,226 70,235 51,237" />
<polygon fill="#899045" points="43,237 7,237 39,225" />
<polygon fill="#3c3934" points="107,212 141,169 114,188" />
<polygon fill="#c8c362" points="84,177 61,183 63,235" />
<polygon fill="#bcbf58" points="9,213 -16,211 20,179" />
<polygon fill="#d6d696" points="227,175 233,189 235,185" />
<polygon fill="#6e7f97" points="65,59 57,48 50,47" />
<polygon fill="#c6d4f4" points="165,28 200,-16 58,26" />
<polygon fill="#0f181f" points="150,127 171,142 171,166" />
<polygon fill="#8fa0bf" points="127,42 202,45 173,57" />
<polygon fill="#121413" points="143,225 176,237 150,202" />
<polygon fill="#cdc167" points="239,237 227,222 239,193" />
<polygon fill="#3e3738" points="109,87 85,85 96,101" />
<polygon fill="#767457" points="196,159 244,169 211,171" />
<polygon fill="#1e231a" points="234,191 223,184 235,201" />
<polygon fill="#a27e70" points="161,207 189,213 193,224" />
<polygon fill="#666e56" points="21,164 83,150 -15,140" />
<polygon fill="#ffdfae" points="119,106 108,93 112,89" />
<polygon fill="#485d16" points="82,164 75,170 82,174" />
<polygon fill="#e2dfca" points="81,212 71,230 71,209" />
<polygon fill="#342018" points="114,118 111,130 122,125" />
<polygon fill="#f7be92" points="115,63 115,69 126,67" />
<polygon fill="#2e3645" points="144,73 166,111 231,73" />
<polygon fill="#51554f" points="225,248 225,259 262,251" />
<polygon fill="#e1dddd" points="173,204 163,200 166,195" />
<polygon fill="#ffffec" points="82,85 84,88 76,90" />
<polygon fill="#3f5123" points="-16,170 3,184 25,186" />
<polygon fill="#526625" points="32,179 -11,171 10,168" />
<polygon fill="#9a705d" points="139,112 120,125 137,145" />
<polygon fill="#999387" points="48,111 48,122 46,116" />
<polygon fill="#14120e" points="162,228 175,227 178,244" />
<polygon fill="#333c49" points="63,71 2,120 -16,66" />
<polygon fill="#ccc8d3" points="175,195 170,194 178,202" />
<polygon fill="#c6ae8f" points="129,227 134,232 132,246" />
<polygon fill="#5a584d" points="84,212 82,217 99,220" />
<polygon fill="#90ac47" points="38,166 30,166 30,187" />
<polygon fill="#414842" points="20,94 32,123 58,98" />
<polygon fill="#6b5d56" points="143,251 154,239 171,247" />
<polygon fill="#a8746c" points="119,76 127,86 127,76" />
<polygon fill="#191813" points="197,238 191,211 215,222" />
<polygon fill="#c8dcfe" points="-8,47 30,40 -16,19" />
<polygon fill="#3c453f" points="153,123 169,116 179,142" />
<polygon fill="#3b4553" points="18,56 108,68 78,85" />
<polygon fill="#b8b356" points="31,214 36,227 -16,227" />
<polygon fill="#231c20" points="104,115 113,140 89,110" />
<polygon fill="#384055" points="144,56 166,76 126,57" />
<polygon fill="#cadeff" points="15,10 -16,5 54,-16" />
<polygon fill="#85817a" points="68,92 55,108 67,100" />
<polygon fill="#737553" points="169,174 174,160 204,166" />
<polygon fill="#505b73" points="73,61 106,61 106,72" />
<polygon fill="#8a9ab9" points="31,48 6,43 -15,51" />
<polygon fill="#ddac89" points="191,215 182,208 182,212" />
<polygon fill="#995f44" points="107,79 101,90 114,88" />
<polygon fill="#c1d4ff" points="225,14 222,-16 112,-1" />
<polygon fill="#716760" points="99,111 116,111 110,119" />
<polygon fill="#adc8fe" points="225,40 270,20 255,-6" />
<polygon fill="#18191b" points="94,137 84,157 88,115" />
<polygon fill="#9e9b84" points="78,190 87,162 87,180" />
<polygon fill="#d7e3fd" points="122,-5 33,45 89,-16" />
<polygon fill="#211d18" points="125,245 134,198 105,212" />
<polygon fill="#27251f" points="210,218 176,205 223,206" />
<polygon fill="#49542b" points="53,166 59,174 57,178" />
<polygon fill="#1f1b21" points="151,151 148,123 138,152" />
<polygon fill="#27252f" points="98,91 103,84 93,81" />
<polygon fill="#91706c" points="132,152 122,133 142,140" />
<polygon fill="#696c2f" points="-5,209 6,220 -16,219" />
<polygon fill="#fdfffe" points="67,243 73,239 72,232" />
<polygon fill="#9d994f" points="68,221 69,235 72,230" />
<polygon fill="#22241a" points="82,236 93,250 88,218" />
<polygon fill="#485977" points="234,62 199,71 185,60" />
<polygon fill="#7989a3" points="133,45 153,49 117,52" />
<polygon fill="#645c57" points="126,182 103,189 121,168" />
<polygon fill="#191f26" points="79,103 66,124 74,95" />
<polygon fill="#ffffe6" points="-7,246 -9,271 66,268" />
<polygon fill="#c3c660" points="171,186 179,196 201,184" />
<polygon fill="#87b6ff" points="262,38 243,25 240,50" />
<polygon fill="#202223" points="149,241 147,231 143,252" />
<polygon fill="#494d59" points="171,245 159,236 172,236" />
<polygon fill="#211f1a" points="221,250 187,271 127,256" />
<polygon fill="#492b1d" points="182,236 178,239 181,224" />
</svg>