<svg xmlns="http://www.w3.org/2000/svg" version="1.1" width="1024" height="1024">
<rect x="0" y="0" width="1024" height="1024" fill="#d4c8bd" />
<g transform="scale(4.000000) translate(0.5 0.5)">
<polygon fill="#403f13" fill-opacity="0.501961" points="188,271 126,121 85,249" />
<polygon fill="#f20000" fill-opacity="0.501961" points="90,22 176,36 125,108" />
<polygon fill="#f5fffd" fill-opacity="0.501961" points="192,122 -3,183 -16,23" />
<polygon fill="#000000" fill-opacity="0.501961" points="160,195 137,147 91,190" />
<polygon fill="#ecf0e4" fill-opacity="0.501961" points="271,85 166,271 141,81" />
<polygon fill="#e31d22" fill-opacity="0.501961" points="123,101 86,61 171,55" />
<polygon fill="#fbfff9" fill-opacity="0.501961" points="4,9 55,68 155,-16" />
<polygon fill="#cfcca4" fill-opacity="0.501961" points="80,182 85,250 196,218" />
<polygon fill="#d10000" fill-opacity="0.501961" points="161,68 152,23 128,23" />
<polygon fill="#000000" fill-opacity="0.501961" points="138,271 140,238 114,240" />
<polygon fill="#e6e8dd" fill-opacity="0.501961" points="271,248 165,-16 161,156" />
<polygon fill="#000006" fill-opacity="0.501961" points="143,200 105,187 115,151" />
<polygon fill="#fdfffe" fill-opacity="0.501961" points="164,154 51,25 73,121" />
<polygon fill="#f0966e" fill-opacity="0.501961" points="123,144 118,169 139,166" />
<polygon fill="#e32222" fill-opacity="0.501961" points="164,68 162,36 83,34" />
<polygon fill="#d7dcd3" fill-opacity="0.501961" points="-6,271 105,188 2,-16" />
<polygon fill="#000006" fill-opacity="0.501961" points="138,148 152,183 130,201" />
<polygon fill="#e6e1d5" fill-opacity="0.501961" points="122,197 143,197 125,241" />
<polygon fill="#ff4f5b" fill-opacity="0.501961" points="120,24 87,38 86,58" />
<polygon fill="#ded7c5" fill-opacity="0.501961" points="148,271 271,264 249,53" />
<polygon fill="#ad9f5f" fill-opacity="0.501961" points="169,271 156,185 135,203" />
<polygon fill="#f2f6f6" fill-opacity="0.501961" points="108,117 185,57 155,165" />
<polygon fill="#95915c" fill-opacity="0.501961" points="130,271 96,187 92,261" />
<polygon fill="#000000" fill-opacity="0.501961" points="115,149 126,141 135,146" />
<polygon fill="#fffff6" fill-opacity="0.501961" points="55,26 86,90 87,0" />
<polygon fill="#e1e3d6" fill-opacity="0.501961" points="129,36 132,-16 85,-6" />
<polygon fill="#ff97a3" fill-opacity="0.501961" points="100,22 117,62 85,68" />
<polygon fill="#d8d8cd" fill-opacity="0.501961" points="138,-11 271,238 271,88" />
<polygon fill="#db2320" fill-opacity="0.501961" points="149,24 129,25 152,82" />
<polygon fill="#0b0c00" fill-opacity="0.501961" points="139,239 122,241 119,271" />
<polygon fill="#eb4647" fill-opacity="0.501961" points="131,103 133,31 98,72" />
<polygon fill="#6a5f23" fill-opacity="0.501961" points="145,245 156,271 151,215" />
<polygon fill="#bfb47a" fill-opacity="0.501961" points="144,205 152,271 137,240" />
<polygon fill="#c0c2b3" fill-opacity="0.501961" points="251,123 271,1 204,-9" />
<polygon fill="#d8d8d0" fill-opacity="0.501961" points="-12,8 42,229 49,-16" />
<polygon fill="#e2e8e2" fill-opacity="0.501961" points="127,125 55,92 92,196" />
<polygon fill="#081415" fill-opacity="0.501961" points="143,159 116,194 143,197" />
<polygon fill="#ffffff" fill-opacity="0.501961" points="90,51 104,50 95,63" />
<polygon fill="#ec2325" fill-opacity="0.501961" points="118,39 104,23 118,23" />
<polygon fill="#cdd1c8" fill-opacity="0.501961" points="92,161 -16,256 90,257" />
<polygon fill="#fcfff1" fill-opacity="0.501961" points="65,36 97,33 96,2" />
<polygon fill="#656136" fill-opacity="0.501961" points="101,218 108,245 100,271" />
<polygon fill="#0c1616" fill-opacity="0.501961" points="123,192 117,149 107,177" />
<polygon fill="#d28d69" fill-opacity="0.501961" points="118,157 126,174 137,157" />
<polygon fill="#e7e7dc" fill-opacity="0.501961" points="94,23 152,-7 168,21" />
<polygon fill="#d3cebc" fill-opacity="0.501961" points="179,264 201,209 148,161" />
<polygon fill="#c4bd90" fill-opacity="0.501961" points="104,257 115,249 111,217" />
<polygon fill="#b1ad89" fill-opacity="0.501961" points="93,182 90,232 106,184" />
<polygon fill="#b4897d" fill-opacity="0.501961" points="128,95 149,73 141,92" />
<polygon fill="#f65958" fill-opacity="0.501961" points="112,27 123,55 87,40" />
<polygon fill="#e1dacd" fill-opacity="0.501961" points="271,158 240,271 130,138" />
<polygon fill="#141c1b" fill-opacity="0.501961" points="131,199 118,163 102,179" />
<polygon fill="#d9dad2" fill-opacity="0.501961" points="124,142 -16,248 16,150" />
<polygon fill="#dcdacf" fill-opacity="0.501961" points="127,34 137,0 90,-16" />
<polygon fill="#d8d7cc" fill-opacity="0.501961" points="168,-16 271,135 165,63" />
<polygon fill="#eff1ee" fill-opacity="0.501961" points="118,91 133,142 72,131" />
<polygon fill="#cf2c28" fill-opacity="0.501961" points="129,67 160,35 163,69" />
<polygon fill="#171413" fill-opacity="0.501961" points="144,155 131,151 130,143" />
<polygon fill="#dfdacd" fill-opacity="0.501961" points="137,205 121,229 121,201" />
<polygon fill="#d7d7c2" fill-opacity="0.501961" points="153,33 182,35 152,23" />
</g>
</svg>

