<svg xmlns="http://www.w3.org/2000/svg" version="1.1" width="1024" height="1024">
<rect x="0" y="0" width="1024" height="1024" fill="#d4c8bd" />
<g transform="scale(4.000000) translate(0.5 0.5)">
<polygon fill="#403f14" fill-opacity="0.501961" points="127,116 183,271 84,249" />
<polygon fill="#f00000" fill-opacity="0.501961" points="96,22 178,38 122,110" />
<polygon fill="#f3fffd" fill-opacity="0.501961" points="-16,196 7,2 162,129" />
<polygon fill="#000000" fill-opacity="0.501961" points="157,195 89,190 140,150" />
<polygon fill="#d6d2a9" fill-opacity="0.501961" points="90,182 232,242 84,236" />
<polygon fill="#f1f6ed" fill-opacity="0.501961" points="263,268 103,114 206,42" />
<polygon fill="#e31214" fill-opacity="0.501961" points="94,79 146,15 166,68" />
<polygon fill="#fffffe" fill-opacity="0.501961" points="25,-12 114,-13 69,86" />
<polygon fill="#000000" fill-opacity="0.501961" points="136,271 113,240 139,238" />
<polygon fill="#f95c62" fill-opacity="0.501961" points="115,99 82,38 138,21" />
<polygon fill="#000005" fill-opacity="0.501961" points="103,189 115,154 143,199" />
<polygon fill="#dfdfd2" fill-opacity="0.501961" points="164,-16 162,271 271,166" />
<polygon fill="#d6dad2" fill-opacity="0.501961" points="105,186 0,271 2,-16" />
<polygon fill="#ebf2e5" fill-opacity="0.501961" points="178,25 36,16 143,-7" />
<polygon fill="#f3976a" fill-opacity="0.501961" points="130,175 117,163 137,156" />
<polygon fill="#beba94" fill-opacity="0.501961" points="175,177 92,271 80,233" />
<polygon fill="#de4042" fill-opacity="0.501961" points="82,58 126,102 153,76" />
<polygon fill="#f9fbf7" fill-opacity="0.501961" points="142,129 100,155 43,10" />
<polygon fill="#f3f6f6" fill-opacity="0.501961" points="105,133 175,157 181,54" />
<polygon fill="#000007" fill-opacity="0.501961" points="134,147 155,185 135,196" />
<polygon fill="#928c5b" fill-opacity="0.501961" points="96,188 123,230 92,271" />
<polygon fill="#7b6d2c" fill-opacity="0.501961" points="142,271 156,235 149,195" />
<polygon fill="#cc0d09" fill-opacity="0.501961" points="152,23 129,25 164,54" />
<polygon fill="#ffd9e8" fill-opacity="0.501961" points="94,45 115,56 90,65" />
<polygon fill="#e0ffff" fill-opacity="0.501961" points="129,34 129,25 118,27" />
<polygon fill="#ded5c5" fill-opacity="0.501961" points="271,253 159,271 230,48" />
<polygon fill="#000002" fill-opacity="0.501961" points="116,148 128,140 133,146" />
<polygon fill="#e7e0db" fill-opacity="0.501961" points="121,198 124,240 139,203" />
<polygon fill="#d5d7cc" fill-opacity="0.501961" points="167,-16 165,69 271,124" />
<polygon fill="#f6f8eb" fill-opacity="0.501961" points="87,11 39,26 84,134" />
<polygon fill="#d4d6cd" fill-opacity="0.501961" points="90,171 90,271 9,103" />
<polygon fill="#fe585d" fill-opacity="0.501961" points="88,58 86,36 120,23" />
<polygon fill="#060900" fill-opacity="0.501961" points="145,262 113,264 134,237" />
<polygon fill="#d92e2a" fill-opacity="0.501961" points="107,31 152,81 161,40" />
<polygon fill="#c0b37d" fill-opacity="0.501961" points="168,226 156,271 153,180" />
<polygon fill="#d6d7ce" fill-opacity="0.501961" points="72,-16 -16,5 13,101" />
<polygon fill="#0e1719" fill-opacity="0.501961" points="120,191 105,179 118,147" />
<polygon fill="#dde4de" fill-opacity="0.501961" points="108,173 71,162 118,123" />
<polygon fill="#091415" fill-opacity="0.501961" points="145,196 117,194 142,156" />
<polygon fill="#fef5e6" fill-opacity="0.501961" points="55,26 124,11 96,34" />
<polygon fill="#ea6572" fill-opacity="0.501961" points="122,54 91,73 87,64" />
<polygon fill="#bcc0b0" fill-opacity="0.501961" points="271,-16 271,105 201,-4" />
<polygon fill="#5b582e" fill-opacity="0.501961" points="104,255 99,223 107,230" />
<polygon fill="#de8763" fill-opacity="0.501961" points="137,164 119,161 125,146" />
<polygon fill="#fdffff" fill-opacity="0.501961" points="103,51 95,62 90,49" />
<polygon fill="#eff1ef" fill-opacity="0.501961" points="127,142 133,90 197,115" />
<polygon fill="#a9a57c" fill-opacity="0.501961" points="90,208 122,260 102,177" />
<polygon fill="#b6aa76" fill-opacity="0.501961" points="142,256 157,182 136,207" />
<polygon fill="#d22c29" fill-opacity="0.501961" points="121,89 165,62 162,33" />
<polygon fill="#e42929" fill-opacity="0.501961" points="118,23 120,42 106,23" />
<polygon fill="#000006" fill-opacity="0.501961" points="125,143 139,150 138,156" />
<polygon fill="#dbd4c2" fill-opacity="0.501961" points="177,271 151,165 271,221" />
<polygon fill="#f4f8f7" fill-opacity="0.501961" points="76,85 118,91 124,134" />
<polygon fill="#292d23" fill-opacity="0.501961" points="102,180 109,188 114,164" />
<polygon fill="#e3e7d8" fill-opacity="0.501961" points="126,35 133,10 112,11" />
<polygon fill="#d8d8cf" fill-opacity="0.501961" points="-16,232 106,184 21,143" />
<polygon fill="#e3e3dc" fill-opacity="0.501961" points="218,115 169,188 126,131" />
<polygon fill="#aea998" fill-opacity="0.501961" points="137,94 143,77 150,79" />
<polygon fill="#23231c" fill-opacity="0.501961" points="117,179 151,176 143,161" />
<polygon fill="#f56f73" fill-opacity="0.501961" points="103,65 113,44 98,22" />
<polygon fill="#dcd9ce" fill-opacity="0.501961" points="115,-7 212,76 154,-16" />
<polygon fill="#cccec3" fill-opacity="0.501961" points="92,264 -16,255 91,184" />
<polygon fill="#60592f" fill-opacity="0.501961" points="152,218 146,235 153,252" />
<polygon fill="#e9403d" fill-opacity="0.501961" points="121,99 120,34 150,71" />
<polygon fill="#bbb48d" fill-opacity="0.501961" points="121,207 105,199 108,263" />
<polygon fill="#201e1b" fill-opacity="0.501961" points="112,158 127,143 116,149" />
<polygon fill="#fffef2" fill-opacity="0.501961" points="64,28 85,69 87,29" />
<polygon fill="#b49792" fill-opacity="0.501961" points="103,84 108,82 98,77" />
<polygon fill="#dd2e2b" fill-opacity="0.501961" points="149,24 130,23 144,79" />
<polygon fill="#b2ad87" fill-opacity="0.501961" points="88,244 93,199 102,240" />
<polygon fill="#cd9175" fill-opacity="0.501961" points="118,156 131,169 121,167" />
<polygon fill="#f0f1ee" fill-opacity="0.501961" points="197,90 144,83 129,143" />
<polygon fill="#151508" fill-opacity="0.501961" points="127,240 123,258 118,240" />
<polygon fill="#cbc2af" fill-opacity="0.501961" points="121,239 133,209 136,237" />
<polygon fill="#e9eae2" fill-opacity="0.501961" points="48,9 42,95 112,163" />
<polygon fill="#0d1618" fill-opacity="0.501961" points="132,198 148,191 103,181" />
<polygon fill="#a29691" fill-opacity="0.501961" points="131,98 120,104 132,103" />
<polygon fill="#e5e3da" fill-opacity="0.501961" points="162,11 203,96 178,156" />
<polygon fill="#786f3e" fill-opacity="0.501961" points="120,233 117,252 114,231" />
<polygon fill="#bf855e" fill-opacity="0.501961" points="134,167 135,157 126,165" />
<polygon fill="#bbbfb0" fill-opacity="0.501961" points="151,81 166,67 153,69" />
<polygon fill="#cdcdc1" fill-opacity="0.501961" points="271,125 223,8 144,-16" />
<polygon fill="#d8d2c1" fill-opacity="0.501961" points="170,32 152,9 153,34" />
<polygon fill="#cec8b4" fill-opacity="0.501961" points="198,234 174,271 157,200" />
<polygon fill="#e0d6c8" fill-opacity="0.501961" points="271,63 187,249 267,266" />
<polygon fill="#dddbd0" fill-opacity="0.501961" points="175,22 113,23 75,-16" />
<polygon fill="#ff5b6a" fill-opacity="0.501961" points="87,56 97,67 87,66" />
<polygon fill="#e94948" fill-opacity="0.501961" points="143,89 109,88 117,35" />
<polygon fill="#b6ad7e" fill-opacity="0.501961" points="150,226 136,233 143,250" />
<polygon fill="#ada16d" fill-opacity="0.501961" points="169,264 151,233 156,195" />
<polygon fill="#dedccf" fill-opacity="0.501961" points="139,11 115,-2 122,34" />
<polygon fill="#d6d7cf" fill-opacity="0.501961" points="57,0 9,-9 -15,92" />
<polygon fill="#a38e86" fill-opacity="0.501961" points="118,93 120,88 109,92" />
<polygon fill="#a48b7e" fill-opacity="0.501961" points="144,93 140,88 129,91" />
<polygon fill="#d52322" fill-opacity="0.501961" points="142,33 162,35 161,63" />
<polygon fill="#b5bba4" fill-opacity="0.501961" points="169,50 163,66 163,33" />
<polygon fill="#f4f5f1" fill-opacity="0.501961" points="54,78 108,84 128,141" />
<polygon fill="#f65253" fill-opacity="0.501961" points="116,42 88,34 86,43" />
<polygon fill="#e6e3dc" fill-opacity="0.501961" points="23,114 -16,60 4,236" />
<polygon fill="#dbded6" fill-opacity="0.501961" points="95,176 125,137 63,155" />
<polygon fill="#dadacd" fill-opacity="0.501961" points="158,192 148,154 200,180" />
<polygon fill="#302e00" fill-opacity="0.501961" points="154,257 152,251 147,267" />
<polygon fill="#605d33" fill-opacity="0.501961" points="104,231 107,256 100,255" />
<polygon fill="#ea4949" fill-opacity="0.501961" points="99,67 129,100 130,55" />
<polygon fill="#f46060" fill-opacity="0.501961" points="99,25 126,60 97,40" />
<polygon fill="#8f845e" fill-opacity="0.501961" points="139,216 136,238 142,227" />
<polygon fill="#f5f0eb" fill-opacity="0.501961" points="154,88 155,73 162,72" />
<polygon fill="#f7f7f0" fill-opacity="0.501961" points="72,80 125,106 62,43" />
<polygon fill="#f6f5e6" fill-opacity="0.501961" points="71,3 124,23 75,23" />
<polygon fill="#8d885f" fill-opacity="0.501961" points="97,225 105,199 104,233" />
<polygon fill="#a66b4b" fill-opacity="0.501961" points="132,151 136,161 119,164" />
<polygon fill="#b1ac82" fill-opacity="0.501961" points="103,211 97,188 105,183" />
<polygon fill="#dc3432" fill-opacity="0.501961" points="126,79 151,77 152,21" />
<polygon fill="#fffef9" fill-opacity="0.501961" points="104,25 104,31 102,25" />
<polygon fill="#f45559" fill-opacity="0.501961" points="99,66 139,74 97,77" />
<polygon fill="#c6c084" fill-opacity="0.501961" points="120,268 113,263 119,247" />
<polygon fill="#f8f8eb" fill-opacity="0.501961" points="58,31 97,34 96,19" />
<polygon fill="#d7d3c9" fill-opacity="0.501961" points="121,-16 157,23 133,22" />
<polygon fill="#faa5b3" fill-opacity="0.501961" points="106,55 93,44 106,47" />
<polygon fill="#eaece9" fill-opacity="0.501961" points="80,111 99,145 189,132" />
<polygon fill="#fbe7ec" fill-opacity="0.501961" points="104,49 94,55 95,65" />
<polygon fill="#c1bbab" fill-opacity="0.501961" points="220,-16 271,6 271,66" />
<polygon fill="#22221f" fill-opacity="0.501961" points="130,148 142,155 149,176" />
<polygon fill="#87865f" fill-opacity="0.501961" points="124,195 119,198 109,191" />
<polygon fill="#d4cfc1" fill-opacity="0.501961" points="122,198 136,200 121,228" />
<polygon fill="#282723" fill-opacity="0.501961" points="139,148 130,143 120,146" />
<polygon fill="#262518" fill-opacity="0.501961" points="119,271 138,237 121,243" />
<polygon fill="#e1dfd6" fill-opacity="0.501961" points="149,170 234,148 138,143" />
<polygon fill="#111a18" fill-opacity="0.501961" points="145,197 105,189 116,171" />
<polygon fill="#8f8755" fill-opacity="0.501961" points="149,218 150,193 156,219" />
<polygon fill="#0e1618" fill-opacity="0.501961" points="139,166 125,190 153,182" />
<polygon fill="#d4d4cb" fill-opacity="0.501961" points="-16,261 107,173 29,164" />
<polygon fill="#796f2f" fill-opacity="0.501961" points="116,258 109,266 116,240" />
<polygon fill="#f86d79" fill-opacity="0.501961" points="86,52 90,67 92,36" />
<polygon fill="#504c27" fill-opacity="0.501961" points="149,238 153,233 150,223" />
<polygon fill="#c4bca6" fill-opacity="0.501961" points="174,242 162,212 169,271" />
<polygon fill="#21231d" fill-opacity="0.501961" points="117,165 100,183 130,175" />
<polygon fill="#d7d4c9" fill-opacity="0.501961" points="222,152 271,148 191,23" />
<polygon fill="#d82828" fill-opacity="0.501961" points="163,67 158,35 139,60" />
<polygon fill="#aaa26d" fill-opacity="0.501961" points="96,229 98,262 103,243" />
<polygon fill="#fd7583" fill-opacity="0.501961" points="115,58 94,64 112,65" />
<polygon fill="#f4f5f4" fill-opacity="0.501961" points="160,91 131,129 133,94" />
<polygon fill="#dddbd2" fill-opacity="0.501961" points="19,138 99,185 -16,5" />
<polygon fill="#9e9057" fill-opacity="0.501961" points="144,246 153,260 147,228" />
<polygon fill="#b0a882" fill-opacity="0.501961" points="150,199 126,197 148,211" />
<polygon fill="#ada273" fill-opacity="0.501961" points="118,204 110,227 123,240" />
<polygon fill="#e73b36" fill-opacity="0.501961" points="119,99 129,97 129,85" />
<polygon fill="#ef504c" fill-opacity="0.501961" points="106,25 104,37 132,55" />
<polygon fill="#a28a78" fill-opacity="0.501961" points="165,71 153,71 153,67" />
<polygon fill="#e73c3a" fill-opacity="0.501961" points="110,32 140,63 143,38" />
</g>
</svg>