<svg xmlns="http://www.w3.org/2000/svg" version="1.1" width="1024" height="1024">
<rect x="0" y="0" width="1024" height="1024" fill="#d4c8bd" />
<g transform="scale(4.000000) translate(0.5 0.5)">
<polygon fill="#404014" points="78,271 180,246 125,122" />
<polygon fill="#f10000" points="96,21 175,37 123,109" />
<polygon fill="#f5fffd" points="31,-16 -16,191 145,136" />
<polygon fill="#000000" points="137,144 96,188 159,197" />
<polygon fill="#eff6ed" points="238,49 172,271 132,91" />
<polygon fill="#e31c1f" points="166,70 147,14 84,79" />
<polygon fill="#cecba8" points="197,213 98,191 35,271" />
<polygon fill="#fffff9" points="51,-16 184,-16 56,52" />
<polygon fill="#000000" points="137,271 140,240 115,240" />
<polygon fill="#e4e3d5" points="170,271 271,201 162,-16" />
<polygon fill="#fafefb" points="46,28 81,137 174,146" />
<polygon fill="#000002" points="115,154 141,198 107,191" />
<polygon fill="#f8595f" points="85,35 138,23 115,97" />
<polygon fill="#f79a6e" points="134,147 131,175 117,163" />
<polygon fill="#dc3d3d" points="84,63 169,56 125,101" />
<polygon fill="#d7ddd5" points="-13,271 105,187 3,-16" />
<polygon fill="#000006" points="126,198 155,185 140,153" />
<polygon fill="#f1f4f4" points="107,137 180,47 178,154" />
<polygon fill="#aea065" points="171,270 129,235 155,179" />
<polygon fill="#ebe4d7" points="127,235 142,202 119,199" />
<polygon fill="#dbddd1" points="124,33 205,-16 94,-12" />
<polygon fill="#d21c18" points="129,20 164,38 149,81" />
<polygon fill="#ffc8d4" points="74,41 117,54 96,66" />
<polygon fill="#83804f" points="108,169 91,206 105,261" />
<polygon fill="#000000" points="139,151 121,144 129,142" />
<polygon fill="#dddacf" points="271,103 249,271 148,-7" />
<polygon fill="#fefff2" points="88,118 57,20 86,1" />
<polygon fill="#081015" points="118,180 104,181 119,144" />
<polygon fill="#d3d4cd" points="97,264 -16,258 42,91" />
<polygon fill="#ff545c" points="86,41 88,68 100,27" />
<polygon fill="#0b0d02" points="132,271 117,243 137,237" />
<polygon fill="#554d1b" points="145,252 157,271 151,222" />
<polygon fill="#d2cab5" points="216,219 153,167 169,271" />
<polygon fill="#c0c3b3" points="271,6 220,105 210,-16" />
<polygon fill="#e1dacc" points="134,143 242,271 271,130" />
<polygon fill="#dfe1d5" points="121,-1 208,22 91,23" />
<polygon fill="#e9ede8" points="109,173 97,69 43,84" />
<polygon fill="#0e1718" points="100,179 140,167 140,197" />
<polygon fill="#d9dbd3" points="-16,5 74,-16 -13,139" />
<polygon fill="#dc302c" points="129,23 141,91 153,23" />
<polygon fill="#e1dfd3" points="134,4 128,34 77,-14" />
<polygon fill="#eff2f0" points="153,157 173,85 89,113" />
<polygon fill="#dfdfd8" points="125,138 83,183 -16,78" />
<polygon fill="#9b935b" points="121,224 90,250 115,271" />
<polygon fill="#b1a776" points="155,187 137,202 143,259" />
<polygon fill="#df2d2c" points="105,30 116,23 136,55" />
<polygon fill="#b6b38e" points="90,229 127,197 91,185" />
<polygon fill="#f5f5f1" points="44,42 119,94 119,144" />
<polygon fill="#1b110f" points="113,156 130,143 123,142" />
<polygon fill="#ffffff" points="99,52 99,62 90,50" />
<polygon fill="#f8f9ea" points="97,34 45,31 97,6" />
<polygon fill="#f85f5e" points="98,23 97,45 120,23" />
<polygon fill="#bdb288" points="158,267 153,189 182,271" />
<polygon fill="#3d3c1f" points="104,236 107,246 102,255" />
<polygon fill="#cb855e" points="133,171 123,146 136,158" />
<polygon fill="#d5cdbe" points="122,237 137,238 122,196" />
<polygon fill="#161b1b" points="145,181 142,155 129,142" />
<polygon fill="#cb2622" points="165,42 162,68 140,24" />
<polygon fill="#c6c094" points="112,226 101,266 113,262" />
<polygon fill="#d4d4c8" points="163,68 271,104 165,-16" />
<polygon fill="#cdcdc3" points="-16,263 91,169 92,266" />
<polygon fill="#776f3d" points="156,217 149,201 149,232" />
<polygon fill="#ed4645" points="142,86 116,35 109,89" />
<polygon fill="#dee9d4" points="130,12 119,34 129,33" />
<polygon fill="#e8e9e4" points="190,153 124,141 191,54" />
<polygon fill="#b5b1a8" points="142,88 132,90 127,105" />
<polygon fill="#96c0a7" points="154,68 164,69 152,72" />
<polygon fill="#d08e71" points="122,149 130,171 118,164" />
<polygon fill="#1e1f13" points="130,238 111,271 145,260" />
<polygon fill="#f77882" points="114,64 117,46 92,66" />
<polygon fill="#d6d3c7" points="222,38 152,33 152,-13" />
<polygon fill="#d7d9d0" points="19,122 111,165 84,205" />
<polygon fill="#0b1717" points="107,189 150,188 139,198" />
<polygon fill="#edecdf" points="86,-16 104,30 105,-13" />
<polygon fill="#e0d6c5" points="165,165 207,271 271,245" />
<polygon fill="#e5e2db" points="26,160 -3,42 -8,260" />
<polygon fill="#f4f6f3" points="175,90 138,139 132,94" />
<polygon fill="#aaa795" points="143,79 155,76 141,86" />
<polygon fill="#f2f1e5" points="39,34 82,127 88,-6" />
<polygon fill="#a4aba4" points="120,89 115,95 110,89" />
<polygon fill="#ddd9cf" points="120,23 106,-16 181,21" />
<polygon fill="#dbdad2" points="23,194 -7,19 58,-16" />
<polygon fill="#b0a87d" points="136,236 151,255 139,197" />
<polygon fill="#e23634" points="151,80 151,27 115,39" />
<polygon fill="#1c211e" points="137,188 102,182 116,161" />
<polygon fill="#d5d3ba" points="101,189 95,174 104,186" />
<polygon fill="#857e4a" points="116,234 120,251 111,259" />
<polygon fill="#d62322" points="159,67 149,24 131,24" />
<polygon fill="#fa595c" points="89,48 108,35 86,36" />
<polygon fill="#c0bcae" points="271,-1 225,-16 256,78" />
<polygon fill="#d4cebc" points="210,257 177,258 152,176" />
<polygon fill="#091417" points="141,168 153,182 149,190" />
<polygon fill="#cccabe" points="262,46 170,-15 271,141" />
<polygon fill="#131815" points="124,142 113,153 120,149" />
<polygon fill="#d2cbc6" points="96,77 108,83 108,89" />
<polygon fill="#eb6773" points="86,56 90,67 106,75" />
<polygon fill="#f15759" points="122,43 123,75 98,77" />
<polygon fill="#e03a39" points="120,76 121,99 149,71" />
<polygon fill="#5e5b31" points="101,223 104,247 106,235" />
<polygon fill="#b8b186" points="122,205 106,264 106,193" />
<polygon fill="#fc8e98" points="115,56 88,44 102,43" />
<polygon fill="#e0e1da" points="149,171 213,143 137,134" />
<polygon fill="#bf8365" points="118,159 121,149 138,160" />
<polygon fill="#fdf6fa" points="101,53 93,50 95,63" />
<polygon fill="#dbd8cc" points="146,8 225,65 252,167" />
<polygon fill="#2a271b" points="138,240 124,260 118,239" />
<polygon fill="#c5c097" points="97,248 89,256 101,258" />
<polygon fill="#a1866f" points="163,43 162,60 166,57" />
<polygon fill="#9b9569" points="95,190 101,234 106,203" />
<polygon fill="#847840" points="141,269 167,271 147,237" />
<polygon fill="#e63536" points="116,29 120,24 101,24" />
<polygon fill="#c7c399" points="144,230 139,240 143,251" />
<polygon fill="#0f1718" points="115,171 138,189 104,190" />
<polygon fill="#f0f1ed" points="161,137 176,82 143,82" />
<polygon fill="#fdfaf1" points="69,39 85,25 89,95" />
<polygon fill="#f5f8f6" points="129,121 118,93 81,95" />
<polygon fill="#b0a883" points="151,201 137,197 133,232" />
<polygon fill="#e7e3d9" points="172,96 187,54 165,52" />
<polygon fill="#e6ece8" points="99,114 120,126 109,165" />
<polygon fill="#d9d5c6" points="136,205 122,201 121,225" />
<polygon fill="#141a19" points="134,168 118,196 152,186" />
<polygon fill="#403d22" points="150,229 152,243 148,239" />
<polygon fill="#aba19b" points="123,105 132,99 123,99" />
<polygon fill="#d3d5cc" points="56,-16 19,50 -16,2" />
<polygon fill="#e63f3d" points="141,91 137,48 114,27" />
<polygon fill="#faf7eb" points="101,8 96,34 72,30" />
<polygon fill="#f8faf5" points="71,72 101,101 96,72" />
<polygon fill="#d72a28" points="161,66 127,67 161,40" />
<polygon fill="#e8e9df" points="35,34 79,-16 47,96" />
<polygon fill="#36342e" points="124,147 125,141 134,145" />
<polygon fill="#c4313c" points="103,54 98,56 107,56" />
<polygon fill="#b2a776" points="165,239 151,210 156,191" />
<polygon fill="#6f4d2c" points="124,170 130,173 129,180" />
<polygon fill="#cac692" points="117,254 119,247 120,257" />
<polygon fill="#ccc5b4" points="167,267 164,214 178,231" />
<polygon fill="#ddd9ce" points="121,-6 119,29 156,8" />
<polygon fill="#444940" points="116,160 115,149 112,160" />
<polygon fill="#aa8b79" points="151,82 154,77 152,70" />
<polygon fill="#b08f83" points="145,94 142,88 132,89" />
<polygon fill="#d1d1c9" points="97,176 87,226 66,183" />
<polygon fill="#dce0d9" points="88,173 131,135 78,155" />
<polygon fill="#cac2ad" points="120,240 132,234 135,215" />
<polygon fill="#dedbd2" points="26,-12 178,30 144,-16" />
<polygon fill="#9f9d9c" points="90,72 95,68 90,68" />
<polygon fill="#f2eadc" points="101,7 113,7 103,30" />
<polygon fill="#fdf1f4" points="103,54 91,55 95,50" />
<polygon fill="#e0d5c6" points="271,259 271,101 188,271" />
<polygon fill="#eeefe9" points="154,72 169,127 174,78" />
<polygon fill="#af7757" points="136,163 124,153 122,170" />
<polygon fill="#212217" points="137,237 114,264 142,271" />
<polygon fill="#b3ae89" points="92,209 100,237 89,240" />
<polygon fill="#a99693" points="103,84 109,78 100,79" />
<polygon fill="#d1cec2" points="193,-13 144,-14 251,100" />
<polygon fill="#f9fbf7" points="108,106 107,83 95,83" />
<polygon fill="#d73737" points="151,70 108,78 133,80" />
<polygon fill="#d7d8cd" points="143,155 194,184 159,191" />
<polygon fill="#f0f2ef" points="124,141 167,118 76,90" />
<polygon fill="#eeecde" points="63,-8 128,22 100,23" />
<polygon fill="#c92d33" points="99,68 110,64 122,68" />
<polygon fill="#634a2f" points="130,156 132,149 136,157" />
<polygon fill="#bcb895" points="105,185 98,183 91,206" />
<polygon fill="#da9b79" points="125,147 126,159 129,147" />
<polygon fill="#d6dbd2" points="77,188 107,172 115,148" />
<polygon fill="#a93a2b" points="150,28 153,37 153,31" />
<polygon fill="#f66064" points="97,34 87,57 87,35" />
<polygon fill="#cccbc0" points="26,271 88,193 91,271" />
<polygon fill="#f3f3f3" points="124,132 158,90 134,95" />
<polygon fill="#9a8b56" points="147,225 144,248 151,255" />
<polygon fill="#a59e6d" points="120,205 114,192 120,196" />
<polygon fill="#89815f" points="137,225 138,236 141,219" />
<polygon fill="#22241f" points="113,171 103,178 115,183" />
<polygon fill="#c3ba8c" points="146,226 142,209 139,245" />
<polygon fill="#ee4d49" points="142,63 109,32 119,66" />
<polygon fill="#c1b9a3" points="118,238 138,225 136,237" />
<polygon fill="#f54e4c" points="109,88 110,79 134,80" />
<polygon fill="#d92423" points="160,66 151,34 162,34" />
<polygon fill="#ffffff" points="91,58 100,57 94,60" />
<polygon fill="#d9d8cf" points="-5,245 64,155 12,163" />
<polygon fill="#bab9a3" points="107,196 105,220 111,214" />
<polygon fill="#e8e8e3" points="12,119 -16,48 -10,209" />
<polygon fill="#8b8559" points="91,244 102,248 91,249" />
<polygon fill="#d7d3c7" points="172,33 121,-16 78,-16" />
<polygon fill="#1a1d1b" points="139,151 132,150 143,162" />
<polygon fill="#f8b8be" points="97,50 113,57 104,47" />
<polygon fill="#f6686a" points="96,45 122,57 100,27" />
<polygon fill="#b2a86e" points="154,221 166,255 157,271" />
<polygon fill="#4f4d2b" points="152,247 157,271 148,268" />
<polygon fill="#6c6f5a" points="149,172 150,178 151,176" />
<polygon fill="#ce9c83" points="121,167 119,155 122,158" />
<polygon fill="#a79e6e" points="124,232 114,215 107,234" />
<polygon fill="#eaece8" points="174,145 61,97 95,138" />
<polygon fill="#e2dfd7" points="222,173 185,163 193,62" />
<polygon fill="#b39785" points="164,71 159,72 164,62" />
<polygon fill="#2d2b1c" points="141,252 127,238 124,247" />
<polygon fill="#d29b75" points="127,147 122,150 132,154" />
<polygon fill="#e23634" points="124,35 148,36 152,78" />
<polygon fill="#d7d3c7" points="271,129 195,33 239,172" />
<polygon fill="#f85a5d" points="128,75 103,76 97,68" />
<polygon fill="#545028" points="152,226 150,218 149,228" />
<polygon fill="#111819" points="152,184 116,182 139,197" />
<polygon fill="#c9bf93" points="142,201 143,215 147,201" />
<polygon fill="#6f6b40" points="116,247 115,231 118,239" />
<polygon fill="#cc4b4e" points="92,56 85,57 89,54" />
<polygon fill="#d0ccbd" points="134,206 122,229 123,195" />
<polygon fill="#827f54" points="144,199 146,194 136,198" />
<polygon fill="#bba89a" points="150,79 154,83 142,82" />
<polygon fill="#e3423f" points="124,99 131,80 130,99" />
<polygon fill="#fbbfcb" points="90,49 89,55 99,50" />
<polygon fill="#9a8f5f" points="144,222 141,203 139,220" />
<polygon fill="#f96a75" points="110,57 101,66 112,65" />
<polygon fill="#222320" points="145,162 136,165 136,149" />
<polygon fill="#e3e5df" points="166,149 148,155 122,135" />
<polygon fill="#c8bf91" points="141,218 145,213 142,226" />
<polygon fill="#bf938e" points="130,98 124,102 132,104" />
<polygon fill="#a39a6b" points="148,199 155,188 155,212" />
<polygon fill="#d72623" points="147,37 132,25 150,24" />
<polygon fill="#bb2323" points="152,58 159,54 139,54" />
<polygon fill="#e8e6e0" points="133,-6 163,20 156,5" />
<polygon fill="#ef5655" points="116,60 121,49 105,24" />
<polygon fill="#b88463" points="135,164 124,170 120,163" />
<polygon fill="#ad2223" points="125,87 118,89 130,89" />
<polygon fill="#cbbbb4" points="93,75 95,70 86,67" />
<polygon fill="#b7ad81" points="158,196 152,229 161,215" />
<polygon fill="#a36843" points="135,162 128,158 132,169" />
<polygon fill="#131714" points="117,152 113,160 118,164" />
<polygon fill="#b9b38d" points="98,187 96,197 105,184" />
<polygon fill="#25241f" points="132,144 137,153 125,143" />
<polygon fill="#ce3b39" points="126,46 118,25 119,37" />
<polygon fill="#d7d4c7" points="135,223 127,205 134,200" />
<polygon fill="#b9b183" points="117,225 122,195 112,210" />
<polygon fill="#d8d2bf" points="215,233 187,271 159,198" />
<polygon fill="#cbc3ab" points="128,217 132,233 123,240" />
<polygon fill="#9b8371" points="152,68 158,67 159,70" />
<polygon fill="#161b1b" points="141,197 143,170 153,183" />
<polygon fill="#222624" points="123,143 124,146 118,148" />
<polygon fill="#787046" points="139,243 138,244 137,239" />
<polygon fill="#c98a64" points="131,168 135,160 131,159" />
<polygon fill="#aea368" points="183,271 117,259 148,254" />
<polygon fill="#958654" points="146,217 148,237 150,227" />
<polygon fill="#e2e2da" points="83,144 38,99 34,41" />
<polygon fill="#71725c" points="116,195 120,197 125,194" />
<polygon fill="#c8c4b8" points="230,65 271,73 222,-11" />
<polygon fill="#191b14" points="136,257 133,240 140,250" />
<polygon fill="#78553e" points="126,153 125,156 120,156" />
<polygon fill="#f25251" points="128,78 109,80 128,87" />
<polygon fill="#d62e2d" points="162,57 162,67 129,67" />
<polygon fill="#f88a95" points="90,46 99,44 88,54" />
<polygon fill="#b28a81" points="131,94 142,88 130,90" />
<polygon fill="#dfdaca" points="167,67 188,33 166,28" />
<polygon fill="#141b1a" points="147,169 132,198 111,188" />
</g>
</svg>