<svg xmlns="http://www.w3.org/2000/svg" version="1.1" width="916" height="1024">
<rect x="0" y="0" width="916" height="1024" fill="#9a8684" />
<g transform="scale(4.000000) translate(0.5 0.5)">
<polygon fill="#ffffff" fill-opacity="0.501961" points="-16,-8 5,194 244,0" />
<polygon fill="#150000" fill-opacity="0.501961" points="244,253 128,107 -16,256" />
<polygon fill="#000000" fill-opacity="0.501961" points="-13,171 -14,271 131,185" />
<polygon fill="#fff5c6" fill-opacity="0.501961" points="-16,153 244,154 199,95" />
<polygon fill="#030000" fill-opacity="0.501961" points="219,271 131,174 244,161" />
<polygon fill="#2f0b10" fill-opacity="0.501961" points="64,68 59,134 11,119" />
<polygon fill="#ffffff" fill-opacity="0.501961" points="-8,-16 60,95 191,2" />
<polygon fill="#22120d" fill-opacity="0.501961" points="224,6 244,126 182,87" />
<polygon fill="#c67c67" fill-opacity="0.501961" points="147,43 151,271 76,144" />
<polygon fill="#0d0010" fill-opacity="0.501961" points="-16,242 193,271 5,173" />
<polygon fill="#ffffff" fill-opacity="0.501961" points="210,163 244,162 195,94" />
<polygon fill="#ffffff" fill-opacity="0.501961" points="109,138 -16,185 -8,127" />
<polygon fill="#ffffff" fill-opacity="0.501961" points="198,66 167,74 187,5" />
<polygon fill="#f4dcd1" fill-opacity="0.501961" points="144,216 173,250 201,255" />
<polygon fill="#311531" fill-opacity="0.501961" points="143,271 79,153 -16,200" />
<polygon fill="#9a7873" fill-opacity="0.501961" points="109,71 51,89 -12,73" />
<polygon fill="#2d1e1c" fill-opacity="0.501961" points="238,91 157,76 156,98" />
<polygon fill="#fffff4" fill-opacity="0.501961" points="45,171 5,85 -16,176" />
<polygon fill="#422b2c" fill-opacity="0.501961" points="54,227 142,148 203,152" />
<polygon fill="#ffffff" fill-opacity="0.501961" points="85,71 -16,-16 185,-16" />
<polygon fill="#4b2e33" fill-opacity="0.501961" points="29,137 22,96 75,106" />
<polygon fill="#ffc683" fill-opacity="0.501961" points="163,229 150,193 117,188" />
<polygon fill="#ffffff" fill-opacity="0.501961" points="197,117 244,115 213,164" />
<polygon fill="#8c818c" fill-opacity="0.501961" points="170,81 101,74 174,32" />
<polygon fill="#ffffff" fill-opacity="0.501961" points="82,140 78,91 39,170" />
<polygon fill="#fffffd" fill-opacity="0.501961" points="152,112 145,67 159,70" />
<polygon fill="#c17f6c" fill-opacity="0.501961" points="150,164 94,186 79,79" />
<polygon fill="#f6b68e" fill-opacity="0.501961" points="115,199 144,250 112,220" />
<polygon fill="#463230" fill-opacity="0.501961" points="244,116 233,-16 207,115" />
<polygon fill="#fffdd5" fill-opacity="0.501961" points="7,79 7,97 71,89" />
<polygon fill="#1b0204" fill-opacity="0.501961" points="202,168 230,242 231,163" />
<polygon fill="#1a0204" fill-opacity="0.501961" points="38,173 14,271 -16,177" />
<polygon fill="#341f36" fill-opacity="0.501961" points="127,185 32,271 44,168" />
<polygon fill="#fffff5" fill-opacity="0.501961" points="206,196 215,208 206,181" />
<polygon fill="#b89453" fill-opacity="0.501961" points="208,156 143,146 198,120" />
<polygon fill="#4a2e30" fill-opacity="0.501961" points="36,133 67,96 64,124" />
<polygon fill="#0d0000" fill-opacity="0.501961" points="-2,58 4,82 -7,105" />
<polygon fill="#000005" fill-opacity="0.501961" points="164,240 184,261 95,271" />
<polygon fill="#250b23" fill-opacity="0.501961" points="156,216 215,271 208,195" />
<polygon fill="#874535" fill-opacity="0.501961" points="143,134 119,185 110,129" />
<polygon fill="#e4bfad" fill-opacity="0.501961" points="87,167 87,98 110,183" />
<polygon fill="#ffd38e" fill-opacity="0.501961" points="29,271 34,242 25,247" />
<polygon fill="#341f2d" fill-opacity="0.501961" points="132,184 237,239 150,144" />
<polygon fill="#fbd1be" fill-opacity="0.501961" points="111,76 178,105 34,90" />
<polygon fill="#fffff1" fill-opacity="0.501961" points="244,140 184,164 234,163" />
<polygon fill="#964f94" fill-opacity="0.501961" points="-16,89 11,38 0,-16" />
<polygon fill="#ffffff" fill-opacity="0.501961" points="1,-16 12,33 148,23" />
<polygon fill="#c6a5c8" fill-opacity="0.501961" points="-3,35 50,69 62,31" />
<polygon fill="#fff7e6" fill-opacity="0.501961" points="164,-16 204,39 179,75" />
<polygon fill="#fffffc" fill-opacity="0.501961" points="34,171 89,140 16,129" />
<polygon fill="#f2da98" fill-opacity="0.501961" points="172,138 147,105 211,94" />
<polygon fill="#968793" fill-opacity="0.501961" points="182,-9 215,-4 177,21" />
<polygon fill="#ffce9d" fill-opacity="0.501961" points="138,189 111,208 127,184" />
<polygon fill="#9d625b" fill-opacity="0.501961" points="102,116 95,101 151,99" />
<polygon fill="#655248" fill-opacity="0.501961" points="241,93 180,99 143,61" />
<polygon fill="#f4f6fb" fill-opacity="0.501961" points="2,39 102,66 159,33" />
<polygon fill="#4f394c" fill-opacity="0.501961" points="91,147 30,180 69,202" />
<polygon fill="#200c22" fill-opacity="0.501961" points="122,182 37,249 85,271" />
<polygon fill="#382230" fill-opacity="0.501961" points="211,200 175,155 121,184" />
<polygon fill="#6f5e59" fill-opacity="0.501961" points="129,68 150,104 145,74" />
<polygon fill="#fffff6" fill-opacity="0.501961" points="3,163 73,118 91,147" />
<polygon fill="#fff2da" fill-opacity="0.501961" points="-16,101 16,82 26,174" />
<polygon fill="#ffffff" fill-opacity="0.501961" points="43,110 37,104 38,110" />
<polygon fill="#847267" fill-opacity="0.501961" points="219,5 195,56 238,9" />
<polygon fill="#f6b4a5" fill-opacity="0.501961" points="90,148 121,92 117,122" />
<polygon fill="#fffffe" fill-opacity="0.501961" points="199,121 244,112 220,162" />
<polygon fill="#513236" fill-opacity="0.501961" points="18,108 35,134 34,93" />
<polygon fill="#fffffc" fill-opacity="0.501961" points="73,136 81,85 66,89" />
<polygon fill="#d29970" fill-opacity="0.501961" points="116,205 125,239 144,228" />
<polygon fill="#ffffe8" fill-opacity="0.501961" points="153,59 172,67 173,75" />
<polygon fill="#e5c186" fill-opacity="0.501961" points="134,173 145,164 144,134" />
<polygon fill="#f5e2c4" fill-opacity="0.501961" points="51,48 -5,66 41,80" />
<polygon fill="#bab6d1" fill-opacity="0.501961" points="151,3 177,32 142,60" />
<polygon fill="#5c1705" fill-opacity="0.501961" points="137,203 138,193 120,209" />
<polygon fill="#200a13" fill-opacity="0.501961" points="228,271 244,242 174,237" />
<polygon fill="#895226" fill-opacity="0.501961" points="191,58 196,39 199,44" />
<polygon fill="#ffffff" fill-opacity="0.501961" points="202,126 207,96 194,107" />
<polygon fill="#665472" fill-opacity="0.501961" points="69,86 80,78 42,79" />
<polygon fill="#8e6264" fill-opacity="0.501961" points="90,72 82,107 81,84" />
<polygon fill="#49342b" fill-opacity="0.501961" points="207,91 244,110 208,116" />
<polygon fill="#ffc992" fill-opacity="0.501961" points="134,211 139,190 153,201" />
<polygon fill="#aa6955" fill-opacity="0.501961" points="146,131 149,87 99,151" />
<polygon fill="#ccb07f" fill-opacity="0.501961" points="186,162 195,108 134,137" />
<polygon fill="#985c93" fill-opacity="0.501961" points="36,34 0,43 6,33" />
<polygon fill="#85644a" fill-opacity="0.501961" points="25,85 41,82 5,71" />
<polygon fill="#4d3842" fill-opacity="0.501961" points="183,192 195,166 138,147" />
<polygon fill="#251321" fill-opacity="0.501961" points="84,183 112,196 137,180" />
<polygon fill="#f0af99" fill-opacity="0.501961" points="80,114 121,124 80,136" />
<polygon fill="#ffffff" fill-opacity="0.501961" points="155,80 144,69 153,102" />
<polygon fill="#fdebce" fill-opacity="0.501961" points="4,72 12,118 31,86" />
<polygon fill="#95786e" fill-opacity="0.501961" points="141,52 175,54 174,67" />
<polygon fill="#ffffed" fill-opacity="0.501961" points="216,19 215,-15 204,28" />
<polygon fill="#61444a" fill-opacity="0.501961" points="67,98 66,118 34,92" />
<polygon fill="#eedfbb" fill-opacity="0.501961" points="191,22 195,71 208,9" />
<polygon fill="#1d091b" fill-opacity="0.501961" points="136,271 136,239 86,234" />
<polygon fill="#443338" fill-opacity="0.501961" points="154,97 208,90 158,77" />
<polygon fill="#0b0513" fill-opacity="0.501961" points="146,221 137,217 151,233" />
<polygon fill="#ffdccf" fill-opacity="0.501961" points="85,91 106,64 85,126" />
<polygon fill="#fffcf6" fill-opacity="0.501961" points="53,65 132,63 88,44" />
<polygon fill="#fefcfd" fill-opacity="0.501961" points="34,6 86,-11 173,48" />
<polygon fill="#8c6443" fill-opacity="0.501961" points="4,138 7,132 12,134" />
<polygon fill="#fffef3" fill-opacity="0.501961" points="-16,174 67,124 40,172" />
<polygon fill="#c6b2ab" fill-opacity="0.501961" points="163,229 178,254 202,258" />
<polygon fill="#51393d" fill-opacity="0.501961" points="23,124 34,132 60,96" />
<polygon fill="#2c160f" fill-opacity="0.501961" points="231,163 193,165 207,173" />
<polygon fill="#7e8295" fill-opacity="0.501961" points="138,48 179,80 130,62" />
<polygon fill="#796198" fill-opacity="0.501961" points="87,147 49,162 79,160" />
<polygon fill="#432d3d" fill-opacity="0.501961" points="110,190 75,156 27,210" />
<polygon fill="#ffedde" fill-opacity="0.501961" points="5,42 -1,5 -16,0" />
<polygon fill="#9c7387" fill-opacity="0.501961" points="16,54 40,53 40,46" />
<polygon fill="#927492" fill-opacity="0.501961" points="141,77 113,63 92,71" />
<polygon fill="#e7e2d3" fill-opacity="0.501961" points="54,87 87,78 71,103" />
<polygon fill="#fffffa" fill-opacity="0.501961" points="172,48 184,74 182,15" />
<polygon fill="#5e493e" fill-opacity="0.501961" points="187,80 217,102 191,63" />
<polygon fill="#a6b3e3" fill-opacity="0.501961" points="114,30 158,27 135,35" />
<polygon fill="#341f27" fill-opacity="0.501961" points="203,180 123,178 219,228" />
<polygon fill="#5c4b4f" fill-opacity="0.501961" points="206,23 243,53 197,69" />
<polygon fill="#a7929c" fill-opacity="0.501961" points="175,23 151,35 172,46" />
<polygon fill="#261226" fill-opacity="0.501961" points="140,271 8,271 108,210" />
<polygon fill="#a0705c" fill-opacity="0.501961" points="128,178 94,148 111,182" />
<polygon fill="#291425" fill-opacity="0.501961" points="166,230 145,179 244,266" />
<polygon fill="#a37e6d" fill-opacity="0.501961" points="131,209 160,215 167,236" />
<polygon fill="#d4cae1" fill-opacity="0.501961" points="53,57 -2,40 103,29" />
<polygon fill="#c39362" fill-opacity="0.501961" points="144,248 134,238 155,236" />
<polygon fill="#b49759" fill-opacity="0.501961" points="221,224 214,205 214,216" />
<polygon fill="#684c40" fill-opacity="0.501961" points="2,54 6,42 -16,42" />
<polygon fill="#6d3624" fill-opacity="0.501961" points="84,110 82,114 81,102" />
<polygon fill="#deb07b" fill-opacity="0.501961" points="24,248 14,262 29,270" />
<polygon fill="#280d1d" fill-opacity="0.501961" points="155,231 152,271 194,271" />
<polygon fill="#d0a897" fill-opacity="0.501961" points="142,107 146,88 124,75" />
<polygon fill="#ffffff" fill-opacity="0.501961" points="139,148 145,145 143,138" />
<polygon fill="#f5eddd" fill-opacity="0.501961" points="68,131 14,132 -16,157" />
<polygon fill="#aa8c66" fill-opacity="0.501961" points="197,41 189,43 199,60" />
<polygon fill="#fffffe" fill-opacity="0.501961" points="176,0 2,-16 13,33" />
<polygon fill="#efdbaa" fill-opacity="0.501961" points="149,101 186,102 147,136" />
<polygon fill="#563d4e" fill-opacity="0.501961" points="46,165 65,157 33,203" />
<polygon fill="#fffffb" fill-opacity="0.501961" points="213,208 212,198 211,204" />
<polygon fill="#a5895e" fill-opacity="0.501961" points="203,140 205,155 160,147" />
<polygon fill="#b59777" fill-opacity="0.501961" points="161,65 157,79 180,76" />
<polygon fill="#ffbf90" fill-opacity="0.501961" points="130,189 128,200 112,201" />
<polygon fill="#332026" fill-opacity="0.501961" points="173,161 140,190 147,146" />
<polygon fill="#8b5856" fill-opacity="0.501961" points="103,98 112,116 94,110" />
<polygon fill="#f3d9d1" fill-opacity="0.501961" points="3,46 43,41 8,56" />
<polygon fill="#ffffff" fill-opacity="0.501961" points="105,38 149,45 151,32" />
<polygon fill="#180107" fill-opacity="0.501961" points="235,271 211,210 208,250" />
<polygon fill="#6f5638" fill-opacity="0.501961" points="244,260 217,222 235,271" />
<polygon fill="#f3e3ce" fill-opacity="0.501961" points="52,84 -5,89 5,107" />
<polygon fill="#9ba2c2" fill-opacity="0.501961" points="159,54 116,57 135,47" />
<polygon fill="#ffffff" fill-opacity="0.501961" points="197,37 186,12 174,42" />
<polygon fill="#9b683f" fill-opacity="0.501961" points="120,182 137,145 143,168" />
<polygon fill="#483033" fill-opacity="0.501961" points="27,128 53,130 65,119" />
<polygon fill="#a15c42" fill-opacity="0.501961" points="114,220 139,194 134,226" />
<polygon fill="#b7a57f" fill-opacity="0.501961" points="209,101 177,100 201,94" />
<polygon fill="#c9a586" fill-opacity="0.501961" points="129,238 141,224 118,223" />
<polygon fill="#b6a498" fill-opacity="0.501961" points="213,-16 207,13 177,15" />
<polygon fill="#7b6476" fill-opacity="0.501961" points="51,79 37,89 50,68" />
<polygon fill="#7c534d" fill-opacity="0.501961" points="123,119 142,111 121,104" />
<polygon fill="#553335" fill-opacity="0.501961" points="30,95 22,121 20,105" />
<polygon fill="#97857a" fill-opacity="0.501961" points="213,23 244,21 217,6" />
<polygon fill="#fffff0" fill-opacity="0.501961" points="204,162 225,119 244,163" />
<polygon fill="#503d3b" fill-opacity="0.501961" points="216,52 206,113 234,115" />
<polygon fill="#532b2d" fill-opacity="0.501961" points="5,86 -16,81 1,66" />
<polygon fill="#321f21" fill-opacity="0.501961" points="-16,177 26,197 40,174" />
<polygon fill="#dfd9b3" fill-opacity="0.501961" points="204,162 190,157 182,163" />
<polygon fill="#fff0d0" fill-opacity="0.501961" points="91,155 91,168 87,158" />
<polygon fill="#705a67" fill-opacity="0.501961" points="179,172 201,173 175,156" />
<polygon fill="#e1c9bf" fill-opacity="0.501961" points="47,67 86,77 101,65" />
<polygon fill="#fff0f0" fill-opacity="0.501961" points="176,23 164,21 152,31" />
<polygon fill="#ffffd6" fill-opacity="0.501961" points="244,7 202,-16 212,3" />
<polygon fill="#ca9480" fill-opacity="0.501961" points="96,160 80,118 116,158" />
<polygon fill="#ffffff" fill-opacity="0.501961" points="149,106 149,81 155,95" />
<polygon fill="#4d3645" fill-opacity="0.501961" points="41,179 92,149 71,181" />
<polygon fill="#fcf3da" fill-opacity="0.501961" points="168,75 184,49 197,63" />
<polygon fill="#362132" fill-opacity="0.501961" points="33,188 36,239 138,180" />
<polygon fill="#19040e" fill-opacity="0.501961" points="13,271 -16,231 35,199" />
<polygon fill="#ffd5a4" fill-opacity="0.501961" points="128,186 130,192 135,187" />
<polygon fill="#724f42" fill-opacity="0.501961" points="181,252 179,246 168,241" />
<polygon fill="#180312" fill-opacity="0.501961" points="48,271 52,205 70,271" />
<polygon fill="#ffc6af" fill-opacity="0.501961" points="122,212 113,217 114,203" />
<polygon fill="#615031" fill-opacity="0.501961" points="206,151 202,157 184,155" />
<polygon fill="#e8ddc9" fill-opacity="0.501961" points="205,178 205,190 213,198" />
<polygon fill="#fcc597" fill-opacity="0.501961" points="140,191 152,197 139,215" />
<polygon fill="#dc9f9a" fill-opacity="0.501961" points="111,122 111,95 135,81" />
<polygon fill="#372526" fill-opacity="0.501961" points="215,220 205,186 191,269" />
<polygon fill="#a27a7b" fill-opacity="0.501961" points="164,61 177,55 153,42" />
<polygon fill="#614c42" fill-opacity="0.501961" points="196,89 192,60 185,97" />
<polygon fill="#481a14" fill-opacity="0.501961" points="121,204 123,210 137,199" />
<polygon fill="#955ec9" fill-opacity="0.501961" points="3,-14 -14,-16 7,25" />
<polygon fill="#413529" fill-opacity="0.501961" points="147,111 147,96 144,104" />
<polygon fill="#f8eee1" fill-opacity="0.501961" points="-9,119 16,128 22,91" />
<polygon fill="#78503d" fill-opacity="0.501961" points="120,174 108,163 141,148" />
<polygon fill="#c18267" fill-opacity="0.501961" points="138,156 121,121 148,108" />
<polygon fill="#fffffd" fill-opacity="0.501961" points="205,139 194,104 222,132" />
<polygon fill="#74262d" fill-opacity="0.501961" points="106,144 118,140 128,145" />
<polygon fill="#ffd7cc" fill-opacity="0.501961" points="100,74 121,85 87,102" />
<polygon fill="#f7f8fc" fill-opacity="0.501961" points="39,110 41,105 34,108" />
<polygon fill="#fcf6df" fill-opacity="0.501961" points="195,16 200,47 204,27" />
<polygon fill="#2e191b" fill-opacity="0.501961" points="226,240 212,191 244,194" />
<polygon fill="#faf9f2" fill-opacity="0.501961" points="64,121 90,146 51,157" />
<polygon fill="#614549" fill-opacity="0.501961" points="21,102 33,121 37,93" />
<polygon fill="#cda27f" fill-opacity="0.501961" points="-7,53 -9,65 18,55" />
<polygon fill="#a177ca" fill-opacity="0.501961" points="41,32 53,35 33,37" />
<polygon fill="#decbc0" fill-opacity="0.501961" points="41,53 40,86 23,54" />
<polygon fill="#29161d" fill-opacity="0.501961" points="118,188 150,180 148,164" />
<polygon fill="#a6978f" fill-opacity="0.501961" points="211,51 214,56 210,66" />
<polygon fill="#fffff2" fill-opacity="0.501961" points="79,95 66,97 80,138" />
<polygon fill="#fefdfc" fill-opacity="0.501961" points="6,33 146,27 153,-16" />
<polygon fill="#321c30" fill-opacity="0.501961" points="116,198 57,211 70,271" />
<polygon fill="#aebde6" fill-opacity="0.501961" points="166,5 151,7 147,34" />
<polygon fill="#f7fbfc" fill-opacity="0.501961" points="57,38 147,32 63,64" />
<polygon fill="#eab29c" fill-opacity="0.501961" points="82,133 78,111 101,117" />
<polygon fill="#5d4449" fill-opacity="0.501961" points="67,113 53,131 21,115" />
<polygon fill="#e0d0a3" fill-opacity="0.501961" points="165,137 166,97 148,100" />
<polygon fill="#513d3f" fill-opacity="0.501961" points="185,156 166,161 158,155" />
<polygon fill="#d3bd93" fill-opacity="0.501961" points="210,30 204,11 203,29" />
<polygon fill="#cdd1d4" fill-opacity="0.501961" points="143,41 141,63 149,44" />
<polygon fill="#694c43" fill-opacity="0.501961" points="81,95 86,106 81,108" />
<polygon fill="#674b41" fill-opacity="0.501961" points="30,80 15,80 15,75" />
<polygon fill="#6b565f" fill-opacity="0.501961" points="144,85 123,70 145,78" />
<polygon fill="#efd7c1" fill-opacity="0.501961" points="46,71 56,50 64,72" />
<polygon fill="#68647a" fill-opacity="0.501961" points="152,57 139,63 155,70" />
<polygon fill="#b97c60" fill-opacity="0.501961" points="128,204 121,225 136,204" />
<polygon fill="#d4bb7e" fill-opacity="0.501961" points="178,135 191,96 197,121" />
<polygon fill="#ffffff" fill-opacity="0.501961" points="164,16 167,-7 188,-6" />
<polygon fill="#8c87a7" fill-opacity="0.501961" points="179,4 179,15 193,8" />
<polygon fill="#f3dfc2" fill-opacity="0.501961" points="25,78 31,53 0,61" />
<polygon fill="#ecebea" fill-opacity="0.501961" points="93,50 129,42 114,66" />
<polygon fill="#b9a5ad" fill-opacity="0.501961" points="95,70 48,72 77,85" />
<polygon fill="#dccccc" fill-opacity="0.501961" points="190,250 186,254 178,241" />
<polygon fill="#6a4d53" fill-opacity="0.501961" points="58,94 45,126 67,103" />
<polygon fill="#7b3e81" fill-opacity="0.501961" points="9,34 6,36 3,24" />
<polygon fill="#d5bc8e" fill-opacity="0.501961" points="145,147 150,119 195,129" />
<polygon fill="#a57d62" fill-opacity="0.501961" points="197,37 191,60 198,49" />
<polygon fill="#533634" fill-opacity="0.501961" points="135,221 131,210 150,225" />
<polygon fill="#2c150f" fill-opacity="0.501961" points="147,148 141,148 146,155" />
<polygon fill="#2d1828" fill-opacity="0.501961" points="213,249 142,178 172,235" />
<polygon fill="#4a3738" fill-opacity="0.501961" points="184,77 185,97 173,77" />
<polygon fill="#90613d" fill-opacity="0.501961" points="134,232 152,238 127,239" />
<polygon fill="#a57455" fill-opacity="0.501961" points="141,218 153,201 162,224" />
<polygon fill="#fdfaf2" fill-opacity="0.501961" points="69,130 -16,157 40,173" />
<polygon fill="#b5b9f3" fill-opacity="0.501961" points="82,32 66,36 55,31" />
<polygon fill="#e9e4da" fill-opacity="0.501961" points="61,94 79,88 46,84" />
<polygon fill="#3a0602" fill-opacity="0.501961" points="135,206 131,203 134,197" />
<polygon fill="#b79ba2" fill-opacity="0.501961" points="33,49 39,69 41,50" />
<polygon fill="#bbb5b5" fill-opacity="0.501961" points="147,69 140,73 128,64" />
<polygon fill="#d29488" fill-opacity="0.501961" points="86,106 97,102 111,142" />
<polygon fill="#261120" fill-opacity="0.501961" points="145,271 135,240 104,234" />
<polygon fill="#c19578" fill-opacity="0.501961" points="137,240 154,240 139,248" />
<polygon fill="#4b3937" fill-opacity="0.501961" points="198,67 212,41 204,94" />
<polygon fill="#fae5d3" fill-opacity="0.501961" points="18,53 10,50 -5,59" />
</g>
</svg>