<svg xmlns="http://www.w3.org/2000/svg" version="1.1" width="1024" height="1024">
<rect x="0" y="0" width="1024" height="1024" fill="#959080" />
<g transform="scale(4.000000) translate(0.5 0.5)">
<polygon fill="#feffff" fill-opacity="0.501961" points="-16,271 103,243 23,149" />
<polygon fill="#130000" fill-opacity="0.501961" points="153,12 73,36 213,72" />
<polygon fill="#724732" fill-opacity="0.501961" points="39,148 135,271 206,143" />
<polygon fill="#f6fffe" fill-opacity="0.501961" points="271,250 176,204 140,271" />
<polygon fill="#2c1f14" fill-opacity="0.501961" points="88,0 114,39 57,119" />
<polygon fill="#28312b" fill-opacity="0.501961" points="251,137 248,-6 216,20" />
<polygon fill="#ffd4b4" fill-opacity="0.501961" points="170,55 151,137 98,58" />
<polygon fill="#3a2b1a" fill-opacity="0.501961" points="204,120 147,24 225,92" />
<polygon fill="#485645" fill-opacity="0.501961" points="82,171 27,194 -7,180" />
<polygon fill="#b3c8bb" fill-opacity="0.501961" points="252,271 198,110 271,165" />
<polygon fill="#514d43" fill-opacity="0.501961" points="234,166 209,206 73,163" />
<polygon fill="#b6c7b9" fill-opacity="0.501961" points="8,65 70,134 -16,158" />
<polygon fill="#36453a" fill-opacity="0.501961" points="55,67 -16,27 45,97" />
<polygon fill="#cfe7db" fill-opacity="0.501961" points="42,57 67,-16 79,40" />
<polygon fill="#e0f3e3" fill-opacity="0.501961" points="63,271 81,185 -16,199" />
<polygon fill="#d4d0c9" fill-opacity="0.501961" points="176,91 129,128 70,100" />
<polygon fill="#a0775b" fill-opacity="0.501961" points="87,271 69,90 156,243" />
<polygon fill="#c6dacd" fill-opacity="0.501961" points="235,62 208,71 235,107" />
<polygon fill="#242a30" fill-opacity="0.501961" points="146,148 94,167 171,176" />
<polygon fill="#d2e6d8" fill-opacity="0.501961" points="123,-16 147,19 109,18" />
<polygon fill="#bfd3c5" fill-opacity="0.501961" points="213,-5 216,50 173,30" />
<polygon fill="#bacdc1" fill-opacity="0.501961" points="49,52 12,-12 25,61" />
<polygon fill="#977764" fill-opacity="0.501961" points="206,130 194,191 95,125" />
<polygon fill="#3b4136" fill-opacity="0.501961" points="271,58 239,39 185,60" />
<polygon fill="#5e6055" fill-opacity="0.501961" points="28,118 4,118 32,157" />
<polygon fill="#c5d5c4" fill-opacity="0.501961" points="158,271 203,205 271,206" />
<polygon fill="#1f1219" fill-opacity="0.501961" points="159,113 192,119 177,106" />
<polygon fill="#112623" fill-opacity="0.501961" points="59,180 57,148 78,165" />
<polygon fill="#b9c8b8" fill-opacity="0.501961" points="7,169 -5,116 93,221" />
<polygon fill="#d7e6d7" fill-opacity="0.501961" points="249,104 241,91 263,80" />
<polygon fill="#c3956b" fill-opacity="0.501961" points="116,43 72,85 165,54" />
<polygon fill="#c79c7f" fill-opacity="0.501961" points="73,142 159,122 89,163" />
<polygon fill="#dde9dc" fill-opacity="0.501961" points="88,231 -14,179 1,271" />
<polygon fill="#4a3a2d" fill-opacity="0.501961" points="63,76 85,55 70,140" />
<polygon fill="#5e685d" fill-opacity="0.501961" points="62,30 42,43 21,-16" />
<polygon fill="#18191f" fill-opacity="0.501961" points="152,131 183,133 173,142" />
<polygon fill="#323228" fill-opacity="0.501961" points="171,-16 187,-16 166,38" />
<polygon fill="#bed2c5" fill-opacity="0.501961" points="74,47 57,108 35,113" />
<polygon fill="#3d4942" fill-opacity="0.501961" points="239,100 257,148 241,143" />
<polygon fill="#575f51" fill-opacity="0.501961" points="6,25 0,75 32,47" />
<polygon fill="#6b776c" fill-opacity="0.501961" points="75,53 76,-12 111,-4" />
<polygon fill="#c0c2bd" fill-opacity="0.501961" points="179,119 80,100 87,126" />
<polygon fill="#464a3e" fill-opacity="0.501961" points="63,46 18,97 53,82" />
<polygon fill="#372f29" fill-opacity="0.501961" points="101,19 189,37 75,54" />
<polygon fill="#c3987d" fill-opacity="0.501961" points="118,132 140,113 185,174" />
<polygon fill="#2a2523" fill-opacity="0.501961" points="121,128 94,125 99,134" />
<polygon fill="#adbfb0" fill-opacity="0.501961" points="197,194 188,221 185,168" />
<polygon fill="#c5d3c4" fill-opacity="0.501961" points="271,170 212,165 209,133" />
<polygon fill="#563e2f" fill-opacity="0.501961" points="205,102 202,129 180,151" />
<polygon fill="#bdcabd" fill-opacity="0.501961" points="81,28 76,52 33,-11" />
<polygon fill="#e1d4b2" fill-opacity="0.501961" points="121,175 132,170 145,178" />
<polygon fill="#6d6f5b" fill-opacity="0.501961" points="166,26 150,-16 138,18" />
<polygon fill="#e6f8f8" fill-opacity="0.501961" points="197,108 189,112 188,134" />
<polygon fill="#a9896a" fill-opacity="0.501961" points="92,223 52,271 151,224" />
<polygon fill="#3b2c1a" fill-opacity="0.501961" points="95,120 93,109 102,113" />
<polygon fill="#3b443a" fill-opacity="0.501961" points="216,176 188,171 203,206" />
<polygon fill="#ac7e58" fill-opacity="0.501961" points="73,90 96,49 131,100" />
<polygon fill="#342121" fill-opacity="0.501961" points="113,182 146,186 170,170" />
<polygon fill="#d1ac8b" fill-opacity="0.501961" points="83,81 181,108 173,59" />
<polygon fill="#c1cec0" fill-opacity="0.501961" points="63,110 -16,119 15,92" />
<polygon fill="#8b9584" fill-opacity="0.501961" points="239,209 208,193 236,157" />
<polygon fill="#786c52" fill-opacity="0.501961" points="187,149 128,251 184,205" />
<polygon fill="#6a5b47" fill-opacity="0.501961" points="171,101 248,115 190,81" />
<polygon fill="#906a4e" fill-opacity="0.501961" points="80,106 43,115 90,147" />
<polygon fill="#42372e" fill-opacity="0.501961" points="136,19 186,35 209,98" />
<polygon fill="#555848" fill-opacity="0.501961" points="33,195 -5,176 23,176" />
<polygon fill="#b9c8b9" fill-opacity="0.501961" points="26,61 25,88 -16,88" />
<polygon fill="#383934" fill-opacity="0.501961" points="230,24 255,75 243,92" />
<polygon fill="#59685b" fill-opacity="0.501961" points="4,156 49,141 64,153" />
<polygon fill="#acb6a7" fill-opacity="0.501961" points="177,30 202,54 186,-16" />
<polygon fill="#c0d2bf" fill-opacity="0.501961" points="271,52 262,17 243,33" />
<polygon fill="#473a30" fill-opacity="0.501961" points="120,124 115,132 113,117" />
<polygon fill="#4c4e45" fill-opacity="0.501961" points="246,11 211,23 240,81" />
<polygon fill="#9f6959" fill-opacity="0.501961" points="127,186 189,177 73,247" />
<polygon fill="#d4e4e4" fill-opacity="0.501961" points="154,127 130,100 163,115" />
<polygon fill="#2d292a" fill-opacity="0.501961" points="77,50 59,93 112,25" />
<polygon fill="#2f2b29" fill-opacity="0.501961" points="106,179 118,168 90,158" />
<polygon fill="#3a402f" fill-opacity="0.501961" points="6,162 1,174 -7,140" />
<polygon fill="#967f68" fill-opacity="0.501961" points="66,125 78,201 130,233" />
<polygon fill="#6b7563" fill-opacity="0.501961" points="199,51 218,45 208,115" />
<polygon fill="#ceede5" fill-opacity="0.501961" points="3,33 -15,-7 -6,83" />
<polygon fill="#bdccc0" fill-opacity="0.501961" points="166,27 158,18 166,-1" />
<polygon fill="#e0e7e7" fill-opacity="0.501961" points="181,104 199,111 197,117" />
<polygon fill="#a4ae9e" fill-opacity="0.501961" points="192,156 215,112 245,135" />
<polygon fill="#494b3f" fill-opacity="0.501961" points="71,-16 97,-16 80,24" />
<polygon fill="#d9c2ab" fill-opacity="0.501961" points="143,55 151,109 110,53" />
<polygon fill="#3d4638" fill-opacity="0.501961" points="17,-6 -5,1 -16,28" />
<polygon fill="#888b7d" fill-opacity="0.501961" points="15,77 16,25 32,45" />
<polygon fill="#bdcbbf" fill-opacity="0.501961" points="34,33 8,28 25,-1" />
<polygon fill="#4e5448" fill-opacity="0.501961" points="266,90 251,124 235,114" />
<polygon fill="#473937" fill-opacity="0.501961" points="111,149 159,160 146,147" />
<polygon fill="#534b4a" fill-opacity="0.501961" points="154,107 168,118 173,105" />
<polygon fill="#c9d2ca" fill-opacity="0.501961" points="79,98 68,111 111,96" />
<polygon fill="#707767" fill-opacity="0.501961" points="212,113 204,82 228,81" />
<polygon fill="#d1dacd" fill-opacity="0.501961" points="-16,191 74,198 88,232" />
<polygon fill="#686b60" fill-opacity="0.501961" points="34,186 47,189 58,166" />
<polygon fill="#6a5a3e" fill-opacity="0.501961" points="118,252 92,214 134,245" />
<polygon fill="#898e7e" fill-opacity="0.501961" points="27,126 62,117 62,92" />
<polygon fill="#616556" fill-opacity="0.501961" points="34,44 44,26 67,27" />
<polygon fill="#655853" fill-opacity="0.501961" points="126,112 116,100 130,106" />
<polygon fill="#b7c7b8" fill-opacity="0.501961" points="31,185 4,155 57,158" />
<polygon fill="#c1d5c5" fill-opacity="0.501961" points="203,-5 207,9 231,8" />
<polygon fill="#675752" fill-opacity="0.501961" points="103,104 92,101 109,99" />
<polygon fill="#b4c0af" fill-opacity="0.501961" points="169,204 165,225 202,215" />
<polygon fill="#585548" fill-opacity="0.501961" points="10,103 -8,87 5,91" />
<polygon fill="#d7a085" fill-opacity="0.501961" points="71,139 54,112 62,150" />
<polygon fill="#37281f" fill-opacity="0.501961" points="163,230 165,205 159,215" />
<polygon fill="#c5d1c0" fill-opacity="0.501961" points="53,66 63,79 70,57" />
<polygon fill="#585e4d" fill-opacity="0.501961" points="62,62 30,77 73,40" />
<polygon fill="#7b4d32" fill-opacity="0.501961" points="100,142 84,136 117,138" />
<polygon fill="#cca686" fill-opacity="0.501961" points="87,160 122,144 88,139" />
<polygon fill="#c0cac1" fill-opacity="0.501961" points="211,17 219,44 194,51" />
<polygon fill="#5e614f" fill-opacity="0.501961" points="231,176 254,175 215,165" />
<polygon fill="#4b5042" fill-opacity="0.501961" points="3,28 17,32 15,70" />
<polygon fill="#a8afad" fill-opacity="0.501961" points="150,133 140,119 191,119" />
<polygon fill="#7a8072" fill-opacity="0.501961" points="271,-2 193,29 253,-16" />
<polygon fill="#5d5f55" fill-opacity="0.501961" points="241,139 217,139 233,144" />
<polygon fill="#e4eee1" fill-opacity="0.501961" points="130,116 111,107 99,116" />
<polygon fill="#ccd9e0" fill-opacity="0.501961" points="88,133 87,127 105,137" />
<polygon fill="#b2bdb1" fill-opacity="0.501961" points="232,51 226,99 241,112" />
<polygon fill="#221f22" fill-opacity="0.501961" points="160,178 170,167 121,165" />
<polygon fill="#413126" fill-opacity="0.501961" points="204,84 191,104 201,112" />
<polygon fill="#d1e1cd" fill-opacity="0.501961" points="271,44 257,104 253,61" />
<polygon fill="#ab805d" fill-opacity="0.501961" points="164,100 193,105 178,67" />
<polygon fill="#8a6948" fill-opacity="0.501961" points="106,45 181,66 153,42" />
<polygon fill="#5f6152" fill-opacity="0.501961" points="144,21 162,0 141,-5" />
<polygon fill="#d5dfd0" fill-opacity="0.501961" points="177,211 263,260 192,246" />
<polygon fill="#dce2df" fill-opacity="0.501961" points="121,134 136,96 142,106" />
<polygon fill="#906d4e" fill-opacity="0.501961" points="113,94 83,70 78,96" />
<polygon fill="#c3d2c3" fill-opacity="0.501961" points="261,154 233,145 242,177" />
<polygon fill="#666a59" fill-opacity="0.501961" points="237,199 268,205 259,196" />
<polygon fill="#bb9983" fill-opacity="0.501961" points="126,239 145,227 110,220" />
<polygon fill="#5e4d46" fill-opacity="0.501961" points="125,114 124,122 129,117" />
<polygon fill="#bdc5ca" fill-opacity="0.501961" points="185,139 158,139 176,144" />
<polygon fill="#865b41" fill-opacity="0.501961" points="91,244 123,248 109,268" />
<polygon fill="#848b7c" fill-opacity="0.501961" points="256,235 238,217 235,235" />
<polygon fill="#725940" fill-opacity="0.501961" points="105,57 70,88 111,21" />
<polygon fill="#aebaaa" fill-opacity="0.501961" points="241,190 213,187 224,174" />
<polygon fill="#becabd" fill-opacity="0.501961" points="39,27 30,62 29,29" />
<polygon fill="#c4d1c3" fill-opacity="0.501961" points="53,4 72,-2 74,45" />
<polygon fill="#666b5e" fill-opacity="0.501961" points="188,12 200,-16 204,7" />
<polygon fill="#636864" fill-opacity="0.501961" points="110,151 90,167 150,157" />
<polygon fill="#c6d3c4" fill-opacity="0.501961" points="250,109 251,88 245,92" />
<polygon fill="#736149" fill-opacity="0.501961" points="107,174 94,224 110,235" />
<polygon fill="#d8e2d7" fill-opacity="0.501961" points="46,42 67,37 40,58" />
<polygon fill="#a88969" fill-opacity="0.501961" points="166,225 138,271 121,260" />
<polygon fill="#bcc6b9" fill-opacity="0.501961" points="3,175 31,147 47,172" />
<polygon fill="#383e3b" fill-opacity="0.501961" points="71,182 52,177 71,155" />
<polygon fill="#5c5953" fill-opacity="0.501961" points="271,174 271,217 250,173" />
<polygon fill="#bd9073" fill-opacity="0.501961" points="181,158 135,133 164,166" />
<polygon fill="#1d171e" fill-opacity="0.501961" points="185,125 182,128 183,134" />
<polygon fill="#8e8d80" fill-opacity="0.501961" points="189,146 196,177 213,167" />
<polygon fill="#8e9181" fill-opacity="0.501961" points="257,9 244,-5 247,45" />
<polygon fill="#5b4630" fill-opacity="0.501961" points="83,113 76,106 67,127" />
<polygon fill="#484d42" fill-opacity="0.501961" points="39,54 35,95 53,85" />
<polygon fill="#bcc7ba" fill-opacity="0.501961" points="132,17 142,-6 95,3" />
<polygon fill="#2a2e30" fill-opacity="0.501961" points="177,126 175,121 172,136" />
<polygon fill="#bfad8c" fill-opacity="0.501961" points="137,171 119,170 137,179" />
<polygon fill="#cbd9cc" fill-opacity="0.501961" points="-7,102 -16,138 18,146" />
<polygon fill="#8f634b" fill-opacity="0.501961" points="155,141 143,124 144,149" />
<polygon fill="#7f7f71" fill-opacity="0.501961" points="229,50 239,63 209,60" />
<polygon fill="#d6dfd9" fill-opacity="0.501961" points="84,100 91,110 86,127" />
<polygon fill="#bbc7b8" fill-opacity="0.501961" points="5,68 -6,89 32,85" />
<polygon fill="#9e4949" fill-opacity="0.501961" points="118,191 147,203 128,221" />
<polygon fill="#8b8e7f" fill-opacity="0.501961" points="103,-16 115,22 96,20" />
<polygon fill="#d4e1cb" fill-opacity="0.501961" points="179,249 167,230 132,271" />
<polygon fill="#95634d" fill-opacity="0.501961" points="117,137 128,151 133,126" />
<polygon fill="#adbdb2" fill-opacity="0.501961" points="231,111 203,125 222,108" />
<polygon fill="#c6d9dc" fill-opacity="0.501961" points="182,143 190,132 190,122" />
<polygon fill="#b99f84" fill-opacity="0.501961" points="114,239 88,228 61,262" />
<polygon fill="#dde6db" fill-opacity="0.501961" points="-16,256 -16,200 87,270" />
<polygon fill="#3c342f" fill-opacity="0.501961" points="151,126 153,132 161,137" />
<polygon fill="#788578" fill-opacity="0.501961" points="56,168 58,157 19,147" />
<polygon fill="#3e3630" fill-opacity="0.501961" points="72,105 70,69 60,99" />
<polygon fill="#71573d" fill-opacity="0.501961" points="207,119 189,54 173,64" />
<polygon fill="#c0cbbd" fill-opacity="0.501961" points="216,211 271,230 244,201" />
<polygon fill="#a7b0a0" fill-opacity="0.501961" points="40,27 66,-3 51,29" />
<polygon fill="#89836f" fill-opacity="0.501961" points="176,31 141,14 158,12" />
<polygon fill="#b58788" fill-opacity="0.501961" points="140,188 134,199 117,188" />
<polygon fill="#3a2f2e" fill-opacity="0.501961" points="167,115 179,108 188,114" />
<polygon fill="#cef3ff" fill-opacity="0.501961" points="107,136 124,131 116,136" />
<polygon fill="#bbc6b7" fill-opacity="0.501961" points="24,124 50,124 59,142" />
<polygon fill="#cbdfd1" fill-opacity="0.501961" points="183,9 185,-16 192,2" />
<polygon fill="#352d2b" fill-opacity="0.501961" points="107,34 193,55 150,23" />
<polygon fill="#c2cfc3" fill-opacity="0.501961" points="234,74 218,85 225,58" />
<polygon fill="#1c171e" fill-opacity="0.501961" points="197,122 193,121 192,133" />
<polygon fill="#1a151b" fill-opacity="0.501961" points="122,175 136,183 119,179" />
<polygon fill="#c3997e" fill-opacity="0.501961" points="126,130 138,149 140,110" />
<polygon fill="#878c7c" fill-opacity="0.501961" points="227,192 250,199 191,212" />
<polygon fill="#3d4036" fill-opacity="0.501961" points="243,139 248,128 257,145" />
<polygon fill="#515b4e" fill-opacity="0.501961" points="51,119 38,121 47,113" />
<polygon fill="#92816c" fill-opacity="0.501961" points="97,184 71,175 98,253" />
<polygon fill="#585950" fill-opacity="0.501961" points="80,24 87,37 132,18" />
<polygon fill="#a2a695" fill-opacity="0.501961" points="197,6 197,57 184,35" />
<polygon fill="#676d62" fill-opacity="0.501961" points="-15,-6 29,-16 45,5" />
<polygon fill="#30312c" fill-opacity="0.501961" points="212,200 198,185 207,202" />
<polygon fill="#878f82" fill-opacity="0.501961" points="187,202 188,164 178,192" />
<polygon fill="#aab4a4" fill-opacity="0.501961" points="62,113 11,121 54,91" />
<polygon fill="#6e786d" fill-opacity="0.501961" points="4,92 41,95 33,86" />
<polygon fill="#c1cdbf" fill-opacity="0.501961" points="24,193 1,184 5,219" />
<polygon fill="#e0ebe6" fill-opacity="0.501961" points="147,115 123,100 152,104" />
<polygon fill="#cad9cb" fill-opacity="0.501961" points="251,185 242,177 245,197" />
<polygon fill="#534742" fill-opacity="0.501961" points="110,128 98,134 88,125" />
<polygon fill="#c0c8c1" fill-opacity="0.501961" points="177,116 182,126 178,134" />
<polygon fill="#aabaa4" fill-opacity="0.501961" points="271,174 248,123 263,121" />
<polygon fill="#3d3e39" fill-opacity="0.501961" points="254,72 241,26 230,50" />
<polygon fill="#5d614f" fill-opacity="0.501961" points="225,44 202,75 201,52" />
<polygon fill="#999585" fill-opacity="0.501961" points="70,103 81,96 65,121" />
<polygon fill="#ceb090" fill-opacity="0.501961" points="98,73 138,105 129,50" />
<polygon fill="#a77d64" fill-opacity="0.501961" points="188,163 198,116 205,139" />
<polygon fill="#d8d6d4" fill-opacity="0.501961" points="120,101 100,97 106,94" />
<polygon fill="#a9b3a3" fill-opacity="0.501961" points="263,247 193,215 226,214" />
<polygon fill="#483e37" fill-opacity="0.501961" points="184,134 174,141 152,130" />
<polygon fill="#c4a484" fill-opacity="0.501961" points="165,57 177,99 152,93" />
<polygon fill="#c8cfcc" fill-opacity="0.501961" points="172,117 168,129 173,132" />
<polygon fill="#9a9d8b" fill-opacity="0.501961" points="63,180 33,183 26,196" />
<polygon fill="#757666" fill-opacity="0.501961" points="236,84 249,87 239,100" />
<polygon fill="#7a6044" fill-opacity="0.501961" points="110,89 128,98 104,94" />
<polygon fill="#7a7e71" fill-opacity="0.501961" points="28,68 21,26 6,74" />
<polygon fill="#c8d4c5" fill-opacity="0.501961" points="16,102 -16,96 15,119" />
<polygon fill="#6f7366" fill-opacity="0.501961" points="37,183 -7,176 11,190" />
<polygon fill="#6a4a31" fill-opacity="0.501961" points="189,143 159,143 178,149" />
<polygon fill="#b5bfb1" fill-opacity="0.501961" points="70,28 79,45 73,55" />
<polygon fill="#9da69f" fill-opacity="0.501961" points="146,154 140,155 153,162" />
<polygon fill="#7e8a7b" fill-opacity="0.501961" points="245,122 216,109 238,135" />
<polygon fill="#595a4b" fill-opacity="0.501961" points="202,172 222,167 196,211" />
<polygon fill="#3b3f41" fill-opacity="0.501961" points="178,196 185,205 174,201" />
<polygon fill="#76796e" fill-opacity="0.501961" points="25,151 4,119 29,131" />
<polygon fill="#c4d0c1" fill-opacity="0.501961" points="224,103 232,83 238,104" />
<polygon fill="#787b6f" fill-opacity="0.501961" points="29,22 61,35 28,-16" />
<polygon fill="#7f8a77" fill-opacity="0.501961" points="20,122 38,123 18,110" />
<polygon fill="#d5ded9" fill-opacity="0.501961" points="199,110 191,113 178,105" />
<polygon fill="#4e5647" fill-opacity="0.501961" points="25,146 70,159 59,146" />
<polygon fill="#534c3d" fill-opacity="0.501961" points="91,115 98,119 98,109" />
<polygon fill="#a1aa96" fill-opacity="0.501961" points="211,79 232,61 207,69" />
<polygon fill="#768173" fill-opacity="0.501961" points="73,43 49,64 50,53" />
<polygon fill="#d8e2d5" fill-opacity="0.501961" points="77,200 84,227 57,265" />
<polygon fill="#394742" fill-opacity="0.501961" points="238,116 241,112 228,104" />
<polygon fill="#aab4a7" fill-opacity="0.501961" points="30,1 12,31 7,11" />
<polygon fill="#0f090c" fill-opacity="0.501961" points="131,155 130,163 135,153" />
<polygon fill="#9f795c" fill-opacity="0.501961" points="62,152 98,141 80,126" />
<polygon fill="#c2d6d0" fill-opacity="0.501961" points="159,140 146,122 149,134" />
<polygon fill="#64695e" fill-opacity="0.501961" points="225,81 198,117 222,106" />
<polygon fill="#95959a" fill-opacity="0.501961" points="169,120 157,103 151,107" />
<polygon fill="#7f6746" fill-opacity="0.501961" points="143,228 161,236 160,188" />
<polygon fill="#4a4a40" fill-opacity="0.501961" points="247,8 234,22 237,-2" />
<polygon fill="#45423b" fill-opacity="0.501961" points="156,120 161,125 160,120" />
<polygon fill="#b58c6b" fill-opacity="0.501961" points="142,113 135,125 152,138" />
<polygon fill="#bfcdc2" fill-opacity="0.501961" points="69,14 56,25 47,6" />
<polygon fill="#515445" fill-opacity="0.501961" points="14,46 3,56 15,69" />
</g>
</svg>